  0
SECTION
  2
HEADER
  9
$ACADVER
  1
AC1009
  9
$INSBASE
 10
0.0
 20
0.0
 30
0.0
  9
$EXTMIN
 10
0.0
 20
0.0
 30
0.0
  9
$EXTMAX
 10
0.0
 20
0.0
 30
0.0
  0
ENDSEC
  0
SECTION
  2
TABLES
  0
TABLE
  2
VPORT
 70
0
  0
ENDTAB
  0
TABLE
  2
LTYPE
 70
1
  0
LTYPE
  2
CONTINUOUS
 70
0
  3
Solid line
 72
65
 73
0
 40
0.0
  0
ENDTAB
  0
TABLE
  2
LAYER
 70
1
  0
LAYER
  2
0
 70
64
 62
7
  6
continuous
  0
ENDTAB
  0
TABLE
  2
STYLE
 70
1
  0
STYLE
  2
STANDARD
 70
0
 40
0
 41
1.0
 50
0.0
 71
0
 42
1
 3
ARIAL.TTF
 4

  0
ENDTAB
  0
TABLE
  2
VIEW
 70
0
  0
ENDTAB
  0
ENDSEC
  0
SECTION
  2
BLOCKS
  0
ENDSEC
  0
SECTION
  2
ENTITIES
  0
POLYLINE
  8
0
 62
7
 70
1
 66
1
 10
0.0
 20
0.0
 30
0.0
  0
VERTEX
  8
0
 10
-141.23829861424946
 20
-0.495018163172257
 30
0.0
  0
VERTEX
  8
0
 10
-142.76153575912136
 20
0.43188841139708295
 30
0.0
  0
VERTEX
  8
0
 10
-143.86768358051208
 20
1.8304034076451092
 30
0.0
  0
VERTEX
  8
0
 10
-144.41883817312703
 20
3.5261733839497453
 30
0.0
  0
VERTEX
  8
0
 10
-144.34628686649532
 20
5.307785997679819
 30
0.0
  0
VERTEX
  8
0
 10
-128.08028695847742
 20
78.67645558278957
 30
0.0
  0
VERTEX
  8
0
 10
-127.48163102526048
 20
80.17944943346636
 30
0.0
  0
VERTEX
  8
0
 10
-126.4384099712166
 20
81.41600484021029
 30
0.0
  0
VERTEX
  8
0
 10
-125.05769194024715
 20
82.25921131581634
 30
0.0
  0
VERTEX
  8
0
 10
-123.48118315679423
 20
82.62252866641207
 30
0.0
  0
VERTEX
  8
0
 10
-63.74700062814233
 20
86.53749999999995
 30
0.0
  0
VERTEX
  8
0
 10
63.74699975268592
 20
86.5375
 30
0.0
  0
VERTEX
  8
0
 10
123.48117810330352
 20
82.62252899853658
 30
0.0
  0
VERTEX
  8
0
 10
125.05769891683707
 20
82.25920846942296
 30
0.0
  0
VERTEX
  8
0
 10
126.43842525167338
 20
81.41599172939037
 30
0.0
  0
VERTEX
  8
0
 10
127.48164785245412
 20
80.17942135630094
 30
0.0
  0
VERTEX
  8
0
 10
128.08029677040938
 20
78.67641132459406
 30
0.0
  0
VERTEX
  8
0
 10
144.3402983808962
 20
5.332144060071272
 30
0.0
  0
VERTEX
  8
0
 10
144.41287754980243
 20
3.55086954317753
 30
0.0
  0
VERTEX
  8
0
 10
143.86198142610647
 20
1.8553695870610662
 30
0.0
  0
VERTEX
  8
0
 10
142.756264522852
 20
0.45694305336275876
 30
0.0
  0
VERTEX
  8
0
 10
141.23352496978458
 20
-0.47013347736061917
 30
0.0
  0
VERTEX
  8
0
 10
50.55279589523743
 20
-35.583233568575665
 30
0.0
  0
VERTEX
  8
0
 10
41.77832771768363
 20
-38.649972328299306
 30
0.0
  0
VERTEX
  8
0
 10
32.81970199647901
 20
-41.127713962664274
 30
0.0
  0
VERTEX
  8
0
 10
23.71640806969502
 20
-43.005536665123735
 30
0.0
  0
VERTEX
  8
0
 10
14.504799999999992
 20
-44.247492859852095
 30
0.0
  0
VERTEX
  8
0
 10
-14.5048
 20
-44.247492859852095
 30
0.0
  0
VERTEX
  8
0
 10
-23.70756591849874
 20
-43.007056226234674
 30
0.0
  0
VERTEX
  8
0
 10
-32.80225910885958
 20
-41.131919067009726
 30
0.0
  0
VERTEX
  8
0
 10
-41.752639791880796
 20
-38.65800127902591
 30
0.0
  0
VERTEX
  8
0
 10
-50.519331049231056
 20
-35.596186785788284
 30
0.0
  0
SEQEND
  8
0
  0
ENDSEC
  0
EOF
