  0
SECTION
  2
HEADER
  9
$ANGBASE
  50
0.0
  9
$ANGDIR
  70
1
  9
$MEASUREMENT
  70
1
  0
ENDSEC
  0
SECTION
  2
TABLES
  0
TABLE
  2
LTYPE
  70
4
  0
LTYPE
  5
40F
  2
CONTINUOUS
  70
0
  3
Solid line
  72
65
  73
0
  40
0.0
  0
LTYPE
  5
410
  2
DASHDOT
 70
0
  3
Dash Dot ____ _ ____ _
 72
65
 73
4
 40
2.0
 49
1.25
 49
-0.25
 49
0.25
 49
-0.25
  0
LTYPE
  5
411
  2
DASHED
 70
0
  3
Dashed __ __ __ __ __
 72
65
 73
2
 40
0.75
 49
0.5
 49
-0.25
  0
LTYPE
  5
43B
  2
DOTTED
 70
0
  3
Dotted .  .  .  .
 72
65
 73
2
 40
0.2
 49
0.0
 49
-0.2
  0
ENDTAB
  0
TABLE
  2
STYLE
  70
4
  0
STYLE
  2
KICAD
  70
0
  40
0
  41
1
  42
1
  50
0
  71
0
  3
isocp.shx
  0
STYLE
  2
KICADB
  70
0
  40
0
  41
1
  42
1
  50
0
  71
0
  3
isocp.shx
  0
STYLE
  2
KICADI
  70
0
  40
0
  41
1
  42
1
  50
15
  71
0
  3
isocp.shx
  0
STYLE
  2
KICADBI
  70
0
  40
0
  41
1
  42
1
  50
15
  71
0
  3
isocp.shx
  0
ENDTAB
  0
TABLE
  2
LAYER
  70
1
  0
LAYER
  2
BLACK
  70
0
  62
7
  6
CONTINUOUS
  0
ENDTAB
  0
ENDSEC
  0
SECTION
  2
ENTITIES
0
LINE
8
BLACK
6
CONTINUOUS
10
35.5431
20
43.3029
11
38.3135
21
30.8063
0
LINE
8
BLACK
6
CONTINUOUS
10
50.6757
20
46.6577
11
35.5431
21
43.3029
0
LINE
8
BLACK
6
CONTINUOUS
10
53.4461
20
34.1611
11
50.6757
21
46.6577
0
LINE
8
BLACK
6
CONTINUOUS
10
38.3135
20
30.8063
11
53.4461
21
34.1611
0
LINE
8
BLACK
6
CONTINUOUS
10
-40.6999
20
-5.77826
11
-46.1094
21
-17.379
0
LINE
8
BLACK
6
CONTINUOUS
10
-26.6521
20
-12.3288
11
-40.6999
21
-5.77826
0
LINE
8
BLACK
6
CONTINUOUS
10
-32.0616
20
-23.9296
11
-26.6521
21
-12.3288
0
LINE
8
BLACK
6
CONTINUOUS
10
-46.1094
20
-17.379
11
-32.0616
21
-23.9296
0
LINE
8
BLACK
6
CONTINUOUS
10
-70.8531
20
-2.52969
11
-70.8531
21
-15.3297
0
LINE
8
BLACK
6
CONTINUOUS
10
-55.3531
20
-2.52969
11
-70.8531
21
-2.52969
0
LINE
8
BLACK
6
CONTINUOUS
10
-55.3531
20
-15.3297
11
-55.3531
21
-2.52969
0
LINE
8
BLACK
6
CONTINUOUS
10
-70.8531
20
-15.3297
11
-55.3531
21
-15.3297
0
LINE
8
BLACK
6
CONTINUOUS
10
-122.492
20
74.7745
11
-125.263
21
62.2779
0
LINE
8
BLACK
6
CONTINUOUS
10
-107.36
20
71.4196
11
-122.492
21
74.7745
0
LINE
8
BLACK
6
CONTINUOUS
10
-110.13
20
58.9231
11
-107.36
21
71.4196
0
LINE
8
BLACK
6
CONTINUOUS
10
-125.263
20
62.2779
11
-110.13
21
58.9231
0
LINE
8
BLACK
6
CONTINUOUS
10
-126.616
20
56.176
11
-129.386
21
43.6794
0
LINE
8
BLACK
6
CONTINUOUS
10
-111.483
20
52.8212
11
-126.616
21
56.176
0
LINE
8
BLACK
6
CONTINUOUS
10
-114.253
20
40.3246
11
-111.483
21
52.8212
0
LINE
8
BLACK
6
CONTINUOUS
10
-129.386
20
43.6794
11
-114.253
21
40.3246
0
LINE
8
BLACK
6
CONTINUOUS
10
-130.739
20
37.5776
11
-133.509
21
25.081
0
LINE
8
BLACK
6
CONTINUOUS
10
-115.606
20
34.2228
11
-130.739
21
37.5776
0
LINE
8
BLACK
6
CONTINUOUS
10
-118.377
20
21.7262
11
-115.606
21
34.2228
0
LINE
8
BLACK
6
CONTINUOUS
10
-133.509
20
25.081
11
-118.377
21
21.7262
0
LINE
8
BLACK
6
CONTINUOUS
10
-134.862
20
18.9791
11
-137.632
21
6.48255
0
LINE
8
BLACK
6
CONTINUOUS
10
-119.729
20
15.6243
11
-134.862
21
18.9791
0
LINE
8
BLACK
6
CONTINUOUS
10
-122.5
20
3.12773
11
-119.729
21
15.6243
0
LINE
8
BLACK
6
CONTINUOUS
10
-137.632
20
6.48255
11
-122.5
21
3.12773
0
LINE
8
BLACK
6
CONTINUOUS
10
-103.379
20
72.9761
11
-106.149
21
60.4795
0
LINE
8
BLACK
6
CONTINUOUS
10
-88.246
20
69.6213
11
-103.379
21
72.9761
0
LINE
8
BLACK
6
CONTINUOUS
10
-91.0165
20
57.1247
11
-88.246
21
69.6213
0
LINE
8
BLACK
6
CONTINUOUS
10
-106.149
20
60.4795
11
-91.0165
21
57.1247
0
LINE
8
BLACK
6
CONTINUOUS
10
-107.502
20
54.3776
11
-110.272
21
41.8811
0
LINE
8
BLACK
6
CONTINUOUS
10
-92.3692
20
51.0228
11
-107.502
21
54.3776
0
LINE
8
BLACK
6
CONTINUOUS
10
-95.1396
20
38.5262
11
-92.3692
21
51.0228
0
LINE
8
BLACK
6
CONTINUOUS
10
-110.272
20
41.8811
11
-95.1396
21
38.5262
0
LINE
8
BLACK
6
CONTINUOUS
10
-111.625
20
35.7792
11
-114.395
21
23.2826
0
LINE
8
BLACK
6
CONTINUOUS
10
-96.4924
20
32.4244
11
-111.625
21
35.7792
0
LINE
8
BLACK
6
CONTINUOUS
10
-99.2628
20
19.9278
11
-96.4924
21
32.4244
0
LINE
8
BLACK
6
CONTINUOUS
10
-114.395
20
23.2826
11
-99.2628
21
19.9278
0
LINE
8
BLACK
6
CONTINUOUS
10
-115.748
20
17.1808
11
-118.519
21
4.68418
0
LINE
8
BLACK
6
CONTINUOUS
10
-100.616
20
13.826
11
-115.748
21
17.1808
0
LINE
8
BLACK
6
CONTINUOUS
10
-103.386
20
1.32936
11
-100.616
21
13.826
0
LINE
8
BLACK
6
CONTINUOUS
10
-118.519
20
4.68418
11
-103.386
21
1.32936
0
LINE
8
BLACK
6
CONTINUOUS
10
-83.234
20
75.8273
11
-86.0044
21
63.3307
0
LINE
8
BLACK
6
CONTINUOUS
10
-68.1014
20
72.4725
11
-83.234
21
75.8273
0
LINE
8
BLACK
6
CONTINUOUS
10
-70.8718
20
59.9759
11
-68.1014
21
72.4725
0
LINE
8
BLACK
6
CONTINUOUS
10
-86.0044
20
63.3307
11
-70.8718
21
59.9759
0
LINE
8
BLACK
6
CONTINUOUS
10
-87.3572
20
57.2289
11
-90.1276
21
44.7323
0
LINE
8
BLACK
6
CONTINUOUS
10
-72.2246
20
53.8741
11
-87.3572
21
57.2289
0
LINE
8
BLACK
6
CONTINUOUS
10
-74.995
20
41.3775
11
-72.2246
21
53.8741
0
LINE
8
BLACK
6
CONTINUOUS
10
-90.1276
20
44.7323
11
-74.995
21
41.3775
0
LINE
8
BLACK
6
CONTINUOUS
10
-91.4803
20
38.6304
11
-94.2508
21
26.1339
0
LINE
8
BLACK
6
CONTINUOUS
10
-76.3477
20
35.2756
11
-91.4803
21
38.6304
0
LINE
8
BLACK
6
CONTINUOUS
10
-79.1182
20
22.779
11
-76.3477
21
35.2756
0
LINE
8
BLACK
6
CONTINUOUS
10
-94.2508
20
26.1339
11
-79.1182
21
22.779
0
LINE
8
BLACK
6
CONTINUOUS
10
-95.6035
20
20.032
11
-98.3739
21
7.53542
0
LINE
8
BLACK
6
CONTINUOUS
10
-80.4709
20
16.6772
11
-95.6035
21
20.032
0
LINE
8
BLACK
6
CONTINUOUS
10
-83.2414
20
4.1806
11
-80.4709
21
16.6772
0
LINE
8
BLACK
6
CONTINUOUS
10
-98.3739
20
7.53542
11
-83.2414
21
4.1806
0
LINE
8
BLACK
6
CONTINUOUS
10
-63.0894
20
78.6786
11
-65.8598
21
66.182
0
LINE
8
BLACK
6
CONTINUOUS
10
-47.9568
20
75.3237
11
-63.0894
21
78.6786
0
LINE
8
BLACK
6
CONTINUOUS
10
-50.7272
20
62.8272
11
-47.9568
21
75.3237
0
LINE
8
BLACK
6
CONTINUOUS
10
-65.8598
20
66.182
11
-50.7272
21
62.8272
0
LINE
8
BLACK
6
CONTINUOUS
10
-67.2125
20
60.0801
11
-69.983
21
47.5835
0
LINE
8
BLACK
6
CONTINUOUS
10
-52.0799
20
56.7253
11
-67.2125
21
60.0801
0
LINE
8
BLACK
6
CONTINUOUS
10
-54.8504
20
44.2287
11
-52.0799
21
56.7253
0
LINE
8
BLACK
6
CONTINUOUS
10
-69.983
20
47.5835
11
-54.8504
21
44.2287
0
LINE
8
BLACK
6
CONTINUOUS
10
-71.3357
20
41.4817
11
-74.1061
21
28.9851
0
LINE
8
BLACK
6
CONTINUOUS
10
-56.2031
20
38.1269
11
-71.3357
21
41.4817
0
LINE
8
BLACK
6
CONTINUOUS
10
-58.9735
20
25.6303
11
-56.2031
21
38.1269
0
LINE
8
BLACK
6
CONTINUOUS
10
-74.1061
20
28.9851
11
-58.9735
21
25.6303
0
LINE
8
BLACK
6
CONTINUOUS
10
-46.5525
20
65.2562
11
-49.3229
21
52.7596
0
LINE
8
BLACK
6
CONTINUOUS
10
-31.4199
20
61.9014
11
-46.5525
21
65.2562
0
LINE
8
BLACK
6
CONTINUOUS
10
-34.1903
20
49.4048
11
-31.4199
21
61.9014
0
LINE
8
BLACK
6
CONTINUOUS
10
-49.3229
20
52.7596
11
-34.1903
21
49.4048
0
LINE
8
BLACK
6
CONTINUOUS
10
-50.6757
20
46.6577
11
-53.4461
21
34.1611
0
LINE
8
BLACK
6
CONTINUOUS
10
-35.5431
20
43.3029
11
-50.6757
21
46.6577
0
LINE
8
BLACK
6
CONTINUOUS
10
-38.3135
20
30.8063
11
-35.5431
21
43.3029
0
LINE
8
BLACK
6
CONTINUOUS
10
-53.4461
20
34.1611
11
-38.3135
21
30.8063
0
LINE
8
BLACK
6
CONTINUOUS
10
-54.7989
20
28.0593
11
-57.5693
21
15.5627
0
LINE
8
BLACK
6
CONTINUOUS
10
-39.6663
20
24.7045
11
-54.7989
21
28.0593
0
LINE
8
BLACK
6
CONTINUOUS
10
-42.4367
20
12.2079
11
-39.6663
21
24.7045
0
LINE
8
BLACK
6
CONTINUOUS
10
-57.5693
20
15.5627
11
-42.4367
21
12.2079
0
LINE
8
BLACK
6
CONTINUOUS
10
-28.9849
20
56.4834
11
-31.7553
21
43.9868
0
LINE
8
BLACK
6
CONTINUOUS
10
-13.8523
20
53.1286
11
-28.9849
21
56.4834
0
LINE
8
BLACK
6
CONTINUOUS
10
-16.6227
20
40.632
11
-13.8523
21
53.1286
0
LINE
8
BLACK
6
CONTINUOUS
10
-31.7553
20
43.9868
11
-16.6227
21
40.632
0
LINE
8
BLACK
6
CONTINUOUS
10
-33.108
20
37.8849
11
-35.8785
21
25.3884
0
LINE
8
BLACK
6
CONTINUOUS
10
-17.9754
20
34.5301
11
-33.108
21
37.8849
0
LINE
8
BLACK
6
CONTINUOUS
10
-20.7459
20
22.0335
11
-17.9754
21
34.5301
0
LINE
8
BLACK
6
CONTINUOUS
10
-35.8785
20
25.3884
11
-20.7459
21
22.0335
0
LINE
8
BLACK
6
CONTINUOUS
10
-37.2312
20
19.2865
11
-40.0016
21
6.78992
0
LINE
8
BLACK
6
CONTINUOUS
10
-22.0986
20
15.9317
11
-37.2312
21
19.2865
0
LINE
8
BLACK
6
CONTINUOUS
10
-24.869
20
3.43511
11
-22.0986
21
15.9317
0
LINE
8
BLACK
6
CONTINUOUS
10
-40.0016
20
6.78992
11
-24.869
21
3.43511
0
LINE
8
BLACK
6
CONTINUOUS
10
-18.614
20
-16.8683
11
-26.3172
21
-27.0908
0
LINE
8
BLACK
6
CONTINUOUS
10
-6.2351
20
-26.1964
11
-18.614
21
-16.8683
0
LINE
8
BLACK
6
CONTINUOUS
10
-13.9383
20
-36.4189
11
-6.2351
21
-26.1964
0
LINE
8
BLACK
6
CONTINUOUS
10
-26.3172
20
-27.0908
11
-13.9383
21
-36.4189
0
LINE
8
BLACK
6
CONTINUOUS
10
13.8523
20
53.1286
11
16.6227
21
40.632
0
LINE
8
BLACK
6
CONTINUOUS
10
28.9849
20
56.4834
11
13.8523
21
53.1286
0
LINE
8
BLACK
6
CONTINUOUS
10
31.7553
20
43.9868
11
28.9849
21
56.4834
0
LINE
8
BLACK
6
CONTINUOUS
10
16.6227
20
40.632
11
31.7553
21
43.9868
0
LINE
8
BLACK
6
CONTINUOUS
10
17.9754
20
34.5301
11
20.7459
21
22.0335
0
LINE
8
BLACK
6
CONTINUOUS
10
33.108
20
37.8849
11
17.9754
21
34.5301
0
LINE
8
BLACK
6
CONTINUOUS
10
35.8785
20
25.3884
11
33.108
21
37.8849
0
LINE
8
BLACK
6
CONTINUOUS
10
20.7459
20
22.0335
11
35.8785
21
25.3884
0
LINE
8
BLACK
6
CONTINUOUS
10
22.0986
20
15.9317
11
24.8691
21
3.43511
0
LINE
8
BLACK
6
CONTINUOUS
10
37.2312
20
19.2865
11
22.0986
21
15.9317
0
LINE
8
BLACK
6
CONTINUOUS
10
40.0016
20
6.78992
11
37.2312
21
19.2865
0
LINE
8
BLACK
6
CONTINUOUS
10
24.8691
20
3.43511
11
40.0016
21
6.78992
0
LINE
8
BLACK
6
CONTINUOUS
10
6.2351
20
-26.1964
11
13.9383
21
-36.4189
0
LINE
8
BLACK
6
CONTINUOUS
10
18.614
20
-16.8683
11
6.2351
21
-26.1964
0
LINE
8
BLACK
6
CONTINUOUS
10
26.3172
20
-27.0908
11
18.614
21
-16.8683
0
LINE
8
BLACK
6
CONTINUOUS
10
13.9383
20
-36.4189
11
26.3172
21
-27.0908
0
LINE
8
BLACK
6
CONTINUOUS
10
31.4199
20
61.9014
11
34.1903
21
49.4048
0
LINE
8
BLACK
6
CONTINUOUS
10
46.5525
20
65.2562
11
31.4199
21
61.9014
0
LINE
8
BLACK
6
CONTINUOUS
10
49.3229
20
52.7596
11
46.5525
21
65.2562
0
LINE
8
BLACK
6
CONTINUOUS
10
34.1903
20
49.4048
11
49.3229
21
52.7596
0
LINE
8
BLACK
6
CONTINUOUS
10
39.6663
20
24.7045
11
42.4367
21
12.2079
0
LINE
8
BLACK
6
CONTINUOUS
10
54.7989
20
28.0593
11
39.6663
21
24.7045
0
LINE
8
BLACK
6
CONTINUOUS
10
57.5693
20
15.5627
11
54.7989
21
28.0593
0
LINE
8
BLACK
6
CONTINUOUS
10
42.4367
20
12.2079
11
57.5693
21
15.5627
0
LINE
8
BLACK
6
CONTINUOUS
10
26.6521
20
-12.3288
11
32.0616
21
-23.9296
0
LINE
8
BLACK
6
CONTINUOUS
10
40.6999
20
-5.77826
11
26.6521
21
-12.3288
0
LINE
8
BLACK
6
CONTINUOUS
10
46.1094
20
-17.379
11
40.6999
21
-5.77826
0
LINE
8
BLACK
6
CONTINUOUS
10
32.0616
20
-23.9296
11
46.1094
21
-17.379
0
LINE
8
BLACK
6
CONTINUOUS
10
47.9568
20
75.3237
11
50.7272
21
62.8272
0
LINE
8
BLACK
6
CONTINUOUS
10
63.0894
20
78.6786
11
47.9568
21
75.3237
0
LINE
8
BLACK
6
CONTINUOUS
10
65.8598
20
66.182
11
63.0894
21
78.6786
0
LINE
8
BLACK
6
CONTINUOUS
10
50.7272
20
62.8272
11
65.8598
21
66.182
0
LINE
8
BLACK
6
CONTINUOUS
10
52.0799
20
56.7253
11
54.8504
21
44.2288
0
LINE
8
BLACK
6
CONTINUOUS
10
67.2125
20
60.0802
11
52.0799
21
56.7253
0
LINE
8
BLACK
6
CONTINUOUS
10
69.983
20
47.5836
11
67.2125
21
60.0802
0
LINE
8
BLACK
6
CONTINUOUS
10
54.8504
20
44.2288
11
69.983
21
47.5836
0
LINE
8
BLACK
6
CONTINUOUS
10
56.2031
20
38.1269
11
58.9735
21
25.6303
0
LINE
8
BLACK
6
CONTINUOUS
10
71.3357
20
41.4817
11
56.2031
21
38.1269
0
LINE
8
BLACK
6
CONTINUOUS
10
74.1061
20
28.9851
11
71.3357
21
41.4817
0
LINE
8
BLACK
6
CONTINUOUS
10
58.9735
20
25.6303
11
74.1061
21
28.9851
0
LINE
8
BLACK
6
CONTINUOUS
10
55.3532
20
-2.52969
11
55.3532
21
-15.3297
0
LINE
8
BLACK
6
CONTINUOUS
10
70.8532
20
-2.52969
11
55.3532
21
-2.52969
0
LINE
8
BLACK
6
CONTINUOUS
10
70.8532
20
-15.3297
11
70.8532
21
-2.52969
0
LINE
8
BLACK
6
CONTINUOUS
10
55.3532
20
-15.3297
11
70.8532
21
-15.3297
0
LINE
8
BLACK
6
CONTINUOUS
10
68.1014
20
72.4725
11
70.8718
21
59.9759
0
LINE
8
BLACK
6
CONTINUOUS
10
83.234
20
75.8273
11
68.1014
21
72.4725
0
LINE
8
BLACK
6
CONTINUOUS
10
86.0044
20
63.3307
11
83.234
21
75.8273
0
LINE
8
BLACK
6
CONTINUOUS
10
70.8718
20
59.9759
11
86.0044
21
63.3307
0
LINE
8
BLACK
6
CONTINUOUS
10
72.2246
20
53.8741
11
74.995
21
41.3775
0
LINE
8
BLACK
6
CONTINUOUS
10
87.3572
20
57.2289
11
72.2246
21
53.8741
0
LINE
8
BLACK
6
CONTINUOUS
10
90.1276
20
44.7323
11
87.3572
21
57.2289
0
LINE
8
BLACK
6
CONTINUOUS
10
74.995
20
41.3775
11
90.1276
21
44.7323
0
LINE
8
BLACK
6
CONTINUOUS
10
76.3477
20
35.2756
11
79.1182
21
22.779
0
LINE
8
BLACK
6
CONTINUOUS
10
91.4803
20
38.6304
11
76.3477
21
35.2756
0
LINE
8
BLACK
6
CONTINUOUS
10
94.2508
20
26.1339
11
91.4803
21
38.6304
0
LINE
8
BLACK
6
CONTINUOUS
10
79.1182
20
22.779
11
94.2508
21
26.1339
0
LINE
8
BLACK
6
CONTINUOUS
10
80.4709
20
16.6772
11
83.2414
21
4.1806
0
LINE
8
BLACK
6
CONTINUOUS
10
95.6035
20
20.032
11
80.4709
21
16.6772
0
LINE
8
BLACK
6
CONTINUOUS
10
98.3739
20
7.53542
11
95.6035
21
20.032
0
LINE
8
BLACK
6
CONTINUOUS
10
83.2414
20
4.1806
11
98.3739
21
7.53542
0
LINE
8
BLACK
6
CONTINUOUS
10
88.246
20
69.6213
11
91.0165
21
57.1247
0
LINE
8
BLACK
6
CONTINUOUS
10
103.379
20
72.9761
11
88.246
21
69.6213
0
LINE
8
BLACK
6
CONTINUOUS
10
106.149
20
60.4795
11
103.379
21
72.9761
0
LINE
8
BLACK
6
CONTINUOUS
10
91.0165
20
57.1247
11
106.149
21
60.4795
0
LINE
8
BLACK
6
CONTINUOUS
10
92.3692
20
51.0228
11
95.1396
21
38.5262
0
LINE
8
BLACK
6
CONTINUOUS
10
107.502
20
54.3776
11
92.3692
21
51.0228
0
LINE
8
BLACK
6
CONTINUOUS
10
110.272
20
41.8811
11
107.502
21
54.3776
0
LINE
8
BLACK
6
CONTINUOUS
10
95.1396
20
38.5262
11
110.272
21
41.8811
0
LINE
8
BLACK
6
CONTINUOUS
10
96.4924
20
32.4244
11
99.2628
21
19.9278
0
LINE
8
BLACK
6
CONTINUOUS
10
111.625
20
35.7792
11
96.4924
21
32.4244
0
LINE
8
BLACK
6
CONTINUOUS
10
114.395
20
23.2826
11
111.625
21
35.7792
0
LINE
8
BLACK
6
CONTINUOUS
10
99.2628
20
19.9278
11
114.395
21
23.2826
0
LINE
8
BLACK
6
CONTINUOUS
10
100.616
20
13.826
11
103.386
21
1.32936
0
LINE
8
BLACK
6
CONTINUOUS
10
115.748
20
17.1808
11
100.616
21
13.826
0
LINE
8
BLACK
6
CONTINUOUS
10
118.519
20
4.68418
11
115.748
21
17.1808
0
LINE
8
BLACK
6
CONTINUOUS
10
103.386
20
1.32936
11
118.519
21
4.68418
0
LINE
8
BLACK
6
CONTINUOUS
10
107.36
20
71.4196
11
110.13
21
58.9231
0
LINE
8
BLACK
6
CONTINUOUS
10
122.492
20
74.7745
11
107.36
21
71.4196
0
LINE
8
BLACK
6
CONTINUOUS
10
125.263
20
62.2779
11
122.492
21
74.7745
0
LINE
8
BLACK
6
CONTINUOUS
10
110.13
20
58.9231
11
125.263
21
62.2779
0
LINE
8
BLACK
6
CONTINUOUS
10
111.483
20
52.8212
11
114.253
21
40.3246
0
LINE
8
BLACK
6
CONTINUOUS
10
126.616
20
56.176
11
111.483
21
52.8212
0
LINE
8
BLACK
6
CONTINUOUS
10
129.386
20
43.6794
11
126.616
21
56.176
0
LINE
8
BLACK
6
CONTINUOUS
10
114.253
20
40.3246
11
129.386
21
43.6794
0
LINE
8
BLACK
6
CONTINUOUS
10
138.317
20
9.63041
11
133.436
21
8.54821
0
LINE
8
BLACK
6
CONTINUOUS
10
138.858
20
7.18967
11
138.317
21
9.63041
0
LINE
8
BLACK
6
CONTINUOUS
10
133.977
20
6.10747
11
138.858
21
7.18967
0
LINE
8
BLACK
6
CONTINUOUS
10
133.436
20
8.54821
11
133.977
21
6.10747
0
LINE
8
BLACK
6
CONTINUOUS
10
132.69
20
35.0141
11
127.808
21
33.9319
0
LINE
8
BLACK
6
CONTINUOUS
10
132.149
20
37.4548
11
132.69
21
35.0141
0
LINE
8
BLACK
6
CONTINUOUS
10
127.267
20
36.3726
11
132.149
21
37.4548
0
LINE
8
BLACK
6
CONTINUOUS
10
127.808
20
33.9319
11
127.267
21
36.3726
0
LINE
8
BLACK
6
CONTINUOUS
10
122.048
20
11.4011
11
134.545
21
14.1716
0
LINE
8
BLACK
6
CONTINUOUS
10
118.694
20
26.5337
11
122.048
21
11.4011
0
LINE
8
BLACK
6
CONTINUOUS
10
131.19
20
29.3042
11
118.694
21
26.5337
0
LINE
8
BLACK
6
CONTINUOUS
10
134.545
20
14.1716
11
131.19
21
29.3042
  0
ENDSEC
  0
EOF
