  0
SECTION
  2
HEADER
  9
$ANGBASE
  50
0.0
  9
$ANGDIR
  70
1
  9
$MEASUREMENT
  70
1
  0
ENDSEC
  0
SECTION
  2
TABLES
  0
TABLE
  2
LTYPE
  70
4
  0
LTYPE
  5
40F
  2
CONTINUOUS
  70
0
  3
Solid line
  72
65
  73
0
  40
0.0
  0
LTYPE
  5
410
  2
DASHDOT
 70
0
  3
Dash Dot ____ _ ____ _
 72
65
 73
4
 40
2.0
 49
1.25
 49
-0.25
 49
0.25
 49
-0.25
  0
LTYPE
  5
411
  2
DASHED
 70
0
  3
Dashed __ __ __ __ __
 72
65
 73
2
 40
0.75
 49
0.5
 49
-0.25
  0
LTYPE
  5
43B
  2
DOTTED
 70
0
  3
Dotted .  .  .  .
 72
65
 73
2
 40
0.2
 49
0.0
 49
-0.2
  0
ENDTAB
  0
TABLE
  2
STYLE
  70
4
  0
STYLE
  2
KICAD
  70
0
  40
0
  41
1
  42
1
  50
0
  71
0
  3
isocp.shx
  0
STYLE
  2
KICADB
  70
0
  40
0
  41
1
  42
1
  50
0
  71
0
  3
isocp.shx
  0
STYLE
  2
KICADI
  70
0
  40
0
  41
1
  42
1
  50
15
  71
0
  3
isocp.shx
  0
STYLE
  2
KICADBI
  70
0
  40
0
  41
1
  42
1
  50
15
  71
0
  3
isocp.shx
  0
ENDTAB
  0
TABLE
  2
LAYER
  70
1
  0
LAYER
  2
BLACK
  70
0
  62
7
  6
CONTINUOUS
  0
ENDTAB
  0
ENDSEC
  0
SECTION
  2
ENTITIES
0
LINE
8
BLACK
6
CONTINUOUS
10
36.1455
20
44.051
11
39.1756
21
30.3829
0
LINE
8
BLACK
6
CONTINUOUS
10
49.8136
20
47.0812
11
36.1455
21
44.051
0
LINE
8
BLACK
6
CONTINUOUS
10
52.8438
20
33.413
11
49.8136
21
47.0812
0
LINE
8
BLACK
6
CONTINUOUS
10
39.1756
20
30.3829
11
52.8438
21
33.413
0
LINE
8
BLACK
6
CONTINUOUS
10
-39.7666
20
-5.55143
11
-45.6832
21
-18.2397
0
LINE
8
BLACK
6
CONTINUOUS
10
-27.0783
20
-11.4681
11
-39.7666
21
-5.55143
0
LINE
8
BLACK
6
CONTINUOUS
10
-32.9949
20
-24.1564
11
-27.0783
21
-11.4681
0
LINE
8
BLACK
6
CONTINUOUS
10
-45.6832
20
-18.2397
11
-32.9949
21
-24.1564
0
LINE
8
BLACK
6
CONTINUOUS
10
-70.1031
20
-1.92969
11
-70.1031
21
-15.9297
0
LINE
8
BLACK
6
CONTINUOUS
10
-56.1031
20
-1.92969
11
-70.1031
21
-1.92969
0
LINE
8
BLACK
6
CONTINUOUS
10
-56.1031
20
-15.9297
11
-56.1031
21
-1.92969
0
LINE
8
BLACK
6
CONTINUOUS
10
-70.1031
20
-15.9297
11
-56.1031
21
-15.9297
0
LINE
8
BLACK
6
CONTINUOUS
10
-121.63
20
75.1979
11
-124.661
21
61.5298
0
LINE
8
BLACK
6
CONTINUOUS
10
-107.962
20
72.1677
11
-121.63
21
75.1979
0
LINE
8
BLACK
6
CONTINUOUS
10
-110.992
20
58.4996
11
-107.962
21
72.1677
0
LINE
8
BLACK
6
CONTINUOUS
10
-124.661
20
61.5298
11
-110.992
21
58.4996
0
LINE
8
BLACK
6
CONTINUOUS
10
-125.754
20
56.5995
11
-128.784
21
42.9313
0
LINE
8
BLACK
6
CONTINUOUS
10
-112.085
20
53.5693
11
-125.754
21
56.5995
0
LINE
8
BLACK
6
CONTINUOUS
10
-115.116
20
39.9012
11
-112.085
21
53.5693
0
LINE
8
BLACK
6
CONTINUOUS
10
-128.784
20
42.9313
11
-115.116
21
39.9012
0
LINE
8
BLACK
6
CONTINUOUS
10
-129.877
20
38.001
11
-132.907
21
24.3329
0
LINE
8
BLACK
6
CONTINUOUS
10
-116.209
20
34.9709
11
-129.877
21
38.001
0
LINE
8
BLACK
6
CONTINUOUS
10
-119.239
20
21.3027
11
-116.209
21
34.9709
0
LINE
8
BLACK
6
CONTINUOUS
10
-132.907
20
24.3329
11
-119.239
21
21.3027
0
LINE
8
BLACK
6
CONTINUOUS
10
-134
20
19.4026
11
-137.03
21
5.73444
0
LINE
8
BLACK
6
CONTINUOUS
10
-120.332
20
16.3724
11
-134
21
19.4026
0
LINE
8
BLACK
6
CONTINUOUS
10
-123.362
20
2.70429
11
-120.332
21
16.3724
0
LINE
8
BLACK
6
CONTINUOUS
10
-137.03
20
5.73444
11
-123.362
21
2.70429
0
LINE
8
BLACK
6
CONTINUOUS
10
-102.517
20
73.3995
11
-105.547
21
59.7314
0
LINE
8
BLACK
6
CONTINUOUS
10
-88.8484
20
70.3694
11
-102.517
21
73.3995
0
LINE
8
BLACK
6
CONTINUOUS
10
-91.8785
20
56.7012
11
-88.8484
21
70.3694
0
LINE
8
BLACK
6
CONTINUOUS
10
-105.547
20
59.7314
11
-91.8785
21
56.7012
0
LINE
8
BLACK
6
CONTINUOUS
10
-106.64
20
54.8011
11
-109.67
21
41.1329
0
LINE
8
BLACK
6
CONTINUOUS
10
-92.9716
20
51.7709
11
-106.64
21
54.8011
0
LINE
8
BLACK
6
CONTINUOUS
10
-96.0017
20
38.1028
11
-92.9716
21
51.7709
0
LINE
8
BLACK
6
CONTINUOUS
10
-109.67
20
41.1329
11
-96.0017
21
38.1028
0
LINE
8
BLACK
6
CONTINUOUS
10
-110.763
20
36.2027
11
-113.793
21
22.5345
0
LINE
8
BLACK
6
CONTINUOUS
10
-97.0947
20
33.1725
11
-110.763
21
36.2027
0
LINE
8
BLACK
6
CONTINUOUS
10
-100.125
20
19.5044
11
-97.0947
21
33.1725
0
LINE
8
BLACK
6
CONTINUOUS
10
-113.793
20
22.5345
11
-100.125
21
19.5044
0
LINE
8
BLACK
6
CONTINUOUS
10
-114.886
20
17.6042
11
-117.916
21
3.93607
0
LINE
8
BLACK
6
CONTINUOUS
10
-101.218
20
14.5741
11
-114.886
21
17.6042
0
LINE
8
BLACK
6
CONTINUOUS
10
-104.248
20
0.905917
11
-101.218
21
14.5741
0
LINE
8
BLACK
6
CONTINUOUS
10
-117.916
20
3.93607
11
-104.248
21
0.905917
0
LINE
8
BLACK
6
CONTINUOUS
10
-82.3719
20
76.2508
11
-85.4021
21
62.5826
0
LINE
8
BLACK
6
CONTINUOUS
10
-68.7038
20
73.2206
11
-82.3719
21
76.2508
0
LINE
8
BLACK
6
CONTINUOUS
10
-71.7339
20
59.5525
11
-68.7038
21
73.2206
0
LINE
8
BLACK
6
CONTINUOUS
10
-85.4021
20
62.5826
11
-71.7339
21
59.5525
0
LINE
8
BLACK
6
CONTINUOUS
10
-86.4951
20
57.6523
11
-89.5252
21
43.9842
0
LINE
8
BLACK
6
CONTINUOUS
10
-72.8269
20
54.6222
11
-86.4951
21
57.6523
0
LINE
8
BLACK
6
CONTINUOUS
10
-75.8571
20
40.954
11
-72.8269
21
54.6222
0
LINE
8
BLACK
6
CONTINUOUS
10
-89.5252
20
43.9842
11
-75.8571
21
40.954
0
LINE
8
BLACK
6
CONTINUOUS
10
-90.6183
20
39.0539
11
-93.6484
21
25.3857
0
LINE
8
BLACK
6
CONTINUOUS
10
-76.9501
20
36.0237
11
-90.6183
21
39.0539
0
LINE
8
BLACK
6
CONTINUOUS
10
-79.9803
20
22.3556
11
-76.9501
21
36.0237
0
LINE
8
BLACK
6
CONTINUOUS
10
-93.6484
20
25.3857
11
-79.9803
21
22.3556
0
LINE
8
BLACK
6
CONTINUOUS
10
-94.7414
20
20.4555
11
-97.7716
21
6.78731
0
LINE
8
BLACK
6
CONTINUOUS
10
-81.0733
20
17.4253
11
-94.7414
21
20.4555
0
LINE
8
BLACK
6
CONTINUOUS
10
-84.1034
20
3.75716
11
-81.0733
21
17.4253
0
LINE
8
BLACK
6
CONTINUOUS
10
-97.7716
20
6.78731
11
-84.1034
21
3.75716
0
LINE
8
BLACK
6
CONTINUOUS
10
-62.2273
20
79.102
11
-65.2574
21
65.4339
0
LINE
8
BLACK
6
CONTINUOUS
10
-48.5591
20
76.0719
11
-62.2273
21
79.102
0
LINE
8
BLACK
6
CONTINUOUS
10
-51.5893
20
62.4037
11
-48.5591
21
76.0719
0
LINE
8
BLACK
6
CONTINUOUS
10
-65.2574
20
65.4339
11
-51.5893
21
62.4037
0
LINE
8
BLACK
6
CONTINUOUS
10
-66.3504
20
60.5036
11
-69.3806
21
46.8354
0
LINE
8
BLACK
6
CONTINUOUS
10
-52.6823
20
57.4734
11
-66.3504
21
60.5036
0
LINE
8
BLACK
6
CONTINUOUS
10
-55.7125
20
43.8053
11
-52.6823
21
57.4734
0
LINE
8
BLACK
6
CONTINUOUS
10
-69.3806
20
46.8354
11
-55.7125
21
43.8053
0
LINE
8
BLACK
6
CONTINUOUS
10
-70.4736
20
41.9051
11
-73.5038
21
28.237
0
LINE
8
BLACK
6
CONTINUOUS
10
-56.8055
20
38.875
11
-70.4736
21
41.9051
0
LINE
8
BLACK
6
CONTINUOUS
10
-59.8356
20
25.2068
11
-56.8055
21
38.875
0
LINE
8
BLACK
6
CONTINUOUS
10
-73.5038
20
28.237
11
-59.8356
21
25.2068
0
LINE
8
BLACK
6
CONTINUOUS
10
-45.6904
20
65.6796
11
-48.7206
21
52.0115
0
LINE
8
BLACK
6
CONTINUOUS
10
-32.0223
20
62.6495
11
-45.6904
21
65.6796
0
LINE
8
BLACK
6
CONTINUOUS
10
-35.0524
20
48.9813
11
-32.0223
21
62.6495
0
LINE
8
BLACK
6
CONTINUOUS
10
-48.7206
20
52.0115
11
-35.0524
21
48.9813
0
LINE
8
BLACK
6
CONTINUOUS
10
-49.8136
20
47.0812
11
-52.8438
21
33.413
0
LINE
8
BLACK
6
CONTINUOUS
10
-36.1455
20
44.051
11
-49.8136
21
47.0812
0
LINE
8
BLACK
6
CONTINUOUS
10
-39.1756
20
30.3829
11
-36.1455
21
44.051
0
LINE
8
BLACK
6
CONTINUOUS
10
-52.8438
20
33.413
11
-39.1756
21
30.3829
0
LINE
8
BLACK
6
CONTINUOUS
10
-53.9368
20
28.4827
11
-56.9669
21
14.8146
0
LINE
8
BLACK
6
CONTINUOUS
10
-40.2686
20
25.4526
11
-53.9368
21
28.4827
0
LINE
8
BLACK
6
CONTINUOUS
10
-43.2988
20
11.7844
11
-40.2686
21
25.4526
0
LINE
8
BLACK
6
CONTINUOUS
10
-56.9669
20
14.8146
11
-43.2988
21
11.7844
0
LINE
8
BLACK
6
CONTINUOUS
10
-28.1228
20
56.9068
11
-31.1529
21
43.2387
0
LINE
8
BLACK
6
CONTINUOUS
10
-14.4546
20
53.8767
11
-28.1228
21
56.9068
0
LINE
8
BLACK
6
CONTINUOUS
10
-17.4848
20
40.2085
11
-14.4546
21
53.8767
0
LINE
8
BLACK
6
CONTINUOUS
10
-31.1529
20
43.2387
11
-17.4848
21
40.2085
0
LINE
8
BLACK
6
CONTINUOUS
10
-32.246
20
38.3084
11
-35.2761
21
24.6403
0
LINE
8
BLACK
6
CONTINUOUS
10
-18.5778
20
35.2782
11
-32.246
21
38.3084
0
LINE
8
BLACK
6
CONTINUOUS
10
-21.608
20
21.6101
11
-18.5778
21
35.2782
0
LINE
8
BLACK
6
CONTINUOUS
10
-35.2761
20
24.6403
11
-21.608
21
21.6101
0
LINE
8
BLACK
6
CONTINUOUS
10
-36.3691
20
19.71
11
-39.3993
21
6.04181
0
LINE
8
BLACK
6
CONTINUOUS
10
-22.701
20
16.6798
11
-36.3691
21
19.71
0
LINE
8
BLACK
6
CONTINUOUS
10
-25.7311
20
3.01166
11
-22.701
21
16.6798
0
LINE
8
BLACK
6
CONTINUOUS
10
-39.3993
20
6.04181
11
-25.7311
21
3.01166
0
LINE
8
BLACK
6
CONTINUOUS
10
-17.6539
20
-16.8404
11
-26.0793
21
-28.0213
0
LINE
8
BLACK
6
CONTINUOUS
10
-6.47299
20
-25.2658
11
-17.6539
21
-16.8404
0
LINE
8
BLACK
6
CONTINUOUS
10
-14.8984
20
-36.4467
11
-6.47299
21
-25.2658
0
LINE
8
BLACK
6
CONTINUOUS
10
-26.0793
20
-28.0213
11
-14.8984
21
-36.4467
0
LINE
8
BLACK
6
CONTINUOUS
10
14.4546
20
53.8767
11
17.4848
21
40.2085
0
LINE
8
BLACK
6
CONTINUOUS
10
28.1228
20
56.9068
11
14.4546
21
53.8767
0
LINE
8
BLACK
6
CONTINUOUS
10
31.1529
20
43.2387
11
28.1228
21
56.9068
0
LINE
8
BLACK
6
CONTINUOUS
10
17.4848
20
40.2085
11
31.1529
21
43.2387
0
LINE
8
BLACK
6
CONTINUOUS
10
18.5778
20
35.2782
11
21.608
21
21.6101
0
LINE
8
BLACK
6
CONTINUOUS
10
32.246
20
38.3084
11
18.5778
21
35.2782
0
LINE
8
BLACK
6
CONTINUOUS
10
35.2761
20
24.6403
11
32.246
21
38.3084
0
LINE
8
BLACK
6
CONTINUOUS
10
21.608
20
21.6101
11
35.2761
21
24.6403
0
LINE
8
BLACK
6
CONTINUOUS
10
22.701
20
16.6798
11
25.7311
21
3.01166
0
LINE
8
BLACK
6
CONTINUOUS
10
36.3691
20
19.71
11
22.701
21
16.6798
0
LINE
8
BLACK
6
CONTINUOUS
10
39.3993
20
6.04181
11
36.3691
21
19.71
0
LINE
8
BLACK
6
CONTINUOUS
10
25.7311
20
3.01166
11
39.3993
21
6.04181
0
LINE
8
BLACK
6
CONTINUOUS
10
6.47299
20
-25.2658
11
14.8984
21
-36.4467
0
LINE
8
BLACK
6
CONTINUOUS
10
17.6539
20
-16.8404
11
6.47299
21
-25.2658
0
LINE
8
BLACK
6
CONTINUOUS
10
26.0793
20
-28.0213
11
17.6539
21
-16.8404
0
LINE
8
BLACK
6
CONTINUOUS
10
14.8984
20
-36.4467
11
26.0793
21
-28.0213
0
LINE
8
BLACK
6
CONTINUOUS
10
32.0223
20
62.6495
11
35.0524
21
48.9813
0
LINE
8
BLACK
6
CONTINUOUS
10
45.6904
20
65.6796
11
32.0223
21
62.6495
0
LINE
8
BLACK
6
CONTINUOUS
10
48.7206
20
52.0115
11
45.6904
21
65.6796
0
LINE
8
BLACK
6
CONTINUOUS
10
35.0524
20
48.9813
11
48.7206
21
52.0115
0
LINE
8
BLACK
6
CONTINUOUS
10
40.2686
20
25.4526
11
43.2988
21
11.7844
0
LINE
8
BLACK
6
CONTINUOUS
10
53.9368
20
28.4827
11
40.2686
21
25.4526
0
LINE
8
BLACK
6
CONTINUOUS
10
56.9669
20
14.8146
11
53.9368
21
28.4827
0
LINE
8
BLACK
6
CONTINUOUS
10
43.2988
20
11.7844
11
56.9669
21
14.8146
0
LINE
8
BLACK
6
CONTINUOUS
10
27.0783
20
-11.4681
11
32.9949
21
-24.1564
0
LINE
8
BLACK
6
CONTINUOUS
10
39.7666
20
-5.55143
11
27.0783
21
-11.4681
0
LINE
8
BLACK
6
CONTINUOUS
10
45.6832
20
-18.2397
11
39.7666
21
-5.55143
0
LINE
8
BLACK
6
CONTINUOUS
10
32.9949
20
-24.1564
11
45.6832
21
-18.2397
0
LINE
8
BLACK
6
CONTINUOUS
10
48.5591
20
76.0719
11
51.5893
21
62.4037
0
LINE
8
BLACK
6
CONTINUOUS
10
62.2273
20
79.102
11
48.5591
21
76.0719
0
LINE
8
BLACK
6
CONTINUOUS
10
65.2574
20
65.4339
11
62.2273
21
79.102
0
LINE
8
BLACK
6
CONTINUOUS
10
51.5893
20
62.4037
11
65.2574
21
65.4339
0
LINE
8
BLACK
6
CONTINUOUS
10
52.6823
20
57.4734
11
55.7125
21
43.8053
0
LINE
8
BLACK
6
CONTINUOUS
10
66.3504
20
60.5036
11
52.6823
21
57.4734
0
LINE
8
BLACK
6
CONTINUOUS
10
69.3806
20
46.8355
11
66.3504
21
60.5036
0
LINE
8
BLACK
6
CONTINUOUS
10
55.7125
20
43.8053
11
69.3806
21
46.8355
0
LINE
8
BLACK
6
CONTINUOUS
10
56.8055
20
38.875
11
59.8356
21
25.2069
0
LINE
8
BLACK
6
CONTINUOUS
10
70.4736
20
41.9051
11
56.8055
21
38.875
0
LINE
8
BLACK
6
CONTINUOUS
10
73.5038
20
28.237
11
70.4736
21
41.9051
0
LINE
8
BLACK
6
CONTINUOUS
10
59.8356
20
25.2069
11
73.5038
21
28.237
0
LINE
8
BLACK
6
CONTINUOUS
10
56.1032
20
-1.92969
11
56.1032
21
-15.9297
0
LINE
8
BLACK
6
CONTINUOUS
10
70.1032
20
-1.92969
11
56.1032
21
-1.92969
0
LINE
8
BLACK
6
CONTINUOUS
10
70.1032
20
-15.9297
11
70.1032
21
-1.92969
0
LINE
8
BLACK
6
CONTINUOUS
10
56.1032
20
-15.9297
11
70.1032
21
-15.9297
0
LINE
8
BLACK
6
CONTINUOUS
10
68.7038
20
73.2206
11
71.7339
21
59.5525
0
LINE
8
BLACK
6
CONTINUOUS
10
82.3719
20
76.2508
11
68.7038
21
73.2206
0
LINE
8
BLACK
6
CONTINUOUS
10
85.4021
20
62.5826
11
82.3719
21
76.2508
0
LINE
8
BLACK
6
CONTINUOUS
10
71.7339
20
59.5525
11
85.4021
21
62.5826
0
LINE
8
BLACK
6
CONTINUOUS
10
72.8269
20
54.6222
11
75.8571
21
40.954
0
LINE
8
BLACK
6
CONTINUOUS
10
86.4951
20
57.6523
11
72.8269
21
54.6222
0
LINE
8
BLACK
6
CONTINUOUS
10
89.5252
20
43.9842
11
86.4951
21
57.6523
0
LINE
8
BLACK
6
CONTINUOUS
10
75.8571
20
40.954
11
89.5252
21
43.9842
0
LINE
8
BLACK
6
CONTINUOUS
10
76.9501
20
36.0237
11
79.9803
21
22.3556
0
LINE
8
BLACK
6
CONTINUOUS
10
90.6183
20
39.0539
11
76.9501
21
36.0237
0
LINE
8
BLACK
6
CONTINUOUS
10
93.6484
20
25.3857
11
90.6183
21
39.0539
0
LINE
8
BLACK
6
CONTINUOUS
10
79.9803
20
22.3556
11
93.6484
21
25.3857
0
LINE
8
BLACK
6
CONTINUOUS
10
81.0733
20
17.4253
11
84.1034
21
3.75716
0
LINE
8
BLACK
6
CONTINUOUS
10
94.7414
20
20.4555
11
81.0733
21
17.4253
0
LINE
8
BLACK
6
CONTINUOUS
10
97.7716
20
6.78731
11
94.7414
21
20.4555
0
LINE
8
BLACK
6
CONTINUOUS
10
84.1034
20
3.75716
11
97.7716
21
6.78731
0
LINE
8
BLACK
6
CONTINUOUS
10
88.8484
20
70.3694
11
91.8785
21
56.7012
0
LINE
8
BLACK
6
CONTINUOUS
10
102.517
20
73.3995
11
88.8484
21
70.3694
0
LINE
8
BLACK
6
CONTINUOUS
10
105.547
20
59.7314
11
102.517
21
73.3995
0
LINE
8
BLACK
6
CONTINUOUS
10
91.8785
20
56.7012
11
105.547
21
59.7314
0
LINE
8
BLACK
6
CONTINUOUS
10
92.9716
20
51.7709
11
96.0017
21
38.1028
0
LINE
8
BLACK
6
CONTINUOUS
10
106.64
20
54.8011
11
92.9716
21
51.7709
0
LINE
8
BLACK
6
CONTINUOUS
10
109.67
20
41.1329
11
106.64
21
54.8011
0
LINE
8
BLACK
6
CONTINUOUS
10
96.0017
20
38.1028
11
109.67
21
41.1329
0
LINE
8
BLACK
6
CONTINUOUS
10
97.0947
20
33.1725
11
100.125
21
19.5044
0
LINE
8
BLACK
6
CONTINUOUS
10
110.763
20
36.2027
11
97.0947
21
33.1725
0
LINE
8
BLACK
6
CONTINUOUS
10
113.793
20
22.5345
11
110.763
21
36.2027
0
LINE
8
BLACK
6
CONTINUOUS
10
100.125
20
19.5044
11
113.793
21
22.5345
0
LINE
8
BLACK
6
CONTINUOUS
10
101.218
20
14.5741
11
104.248
21
0.905917
0
LINE
8
BLACK
6
CONTINUOUS
10
114.886
20
17.6042
11
101.218
21
14.5741
0
LINE
8
BLACK
6
CONTINUOUS
10
117.916
20
3.93607
11
114.886
21
17.6042
0
LINE
8
BLACK
6
CONTINUOUS
10
104.248
20
0.905917
11
117.916
21
3.93607
0
LINE
8
BLACK
6
CONTINUOUS
10
107.962
20
72.1677
11
110.992
21
58.4996
0
LINE
8
BLACK
6
CONTINUOUS
10
121.63
20
75.1979
11
107.962
21
72.1677
0
LINE
8
BLACK
6
CONTINUOUS
10
124.661
20
61.5298
11
121.63
21
75.1979
0
LINE
8
BLACK
6
CONTINUOUS
10
110.992
20
58.4996
11
124.661
21
61.5298
0
LINE
8
BLACK
6
CONTINUOUS
10
112.085
20
53.5693
11
115.116
21
39.9012
0
LINE
8
BLACK
6
CONTINUOUS
10
125.754
20
56.5995
11
112.085
21
53.5693
0
LINE
8
BLACK
6
CONTINUOUS
10
128.784
20
42.9313
11
125.754
21
56.5995
0
LINE
8
BLACK
6
CONTINUOUS
10
115.116
20
39.9012
11
128.784
21
42.9313
0
LINE
8
BLACK
6
CONTINUOUS
10
124.853
20
11.224
11
123.067
21
10.8279
0
LINE
8
BLACK
6
CONTINUOUS
10
124.522
20
12.7178
11
124.853
21
11.224
0
LINE
8
BLACK
6
CONTINUOUS
10
121.3
20
12.0035
11
124.522
21
12.7178
0
LINE
8
BLACK
6
CONTINUOUS
10
118.27
20
25.6717
11
121.3
21
12.0035
0
LINE
8
BLACK
6
CONTINUOUS
10
121.492
20
26.3859
11
118.27
21
25.6717
0
LINE
8
BLACK
6
CONTINUOUS
10
121.161
20
27.8796
11
121.492
21
26.3859
0
LINE
8
BLACK
6
CONTINUOUS
10
119.374
20
27.4835
11
121.161
21
27.8796
0
LINE
8
BLACK
6
CONTINUOUS
10
117.913
20
34.0735
11
119.374
21
27.4835
0
LINE
8
BLACK
6
CONTINUOUS
10
121.067
20
34.7726
11
117.913
21
34.0735
0
LINE
8
BLACK
6
CONTINUOUS
10
120.893
20
35.5537
11
121.067
21
34.7726
0
LINE
8
BLACK
6
CONTINUOUS
10
123.627
20
36.1597
11
120.893
21
35.5537
0
LINE
8
BLACK
6
CONTINUOUS
10
123.8
20
35.3787
11
123.627
21
36.1597
0
LINE
8
BLACK
6
CONTINUOUS
10
129.922
20
36.7358
11
123.8
21
35.3787
0
LINE
8
BLACK
6
CONTINUOUS
10
130.295
20
35.0516
11
129.922
21
36.7358
0
LINE
8
BLACK
6
CONTINUOUS
10
131.467
20
35.3114
11
130.295
21
35.0516
0
LINE
8
BLACK
6
CONTINUOUS
10
132.181
20
32.0896
11
131.467
21
35.3114
0
LINE
8
BLACK
6
CONTINUOUS
10
131.009
20
31.8299
11
132.181
21
32.0896
0
LINE
8
BLACK
6
CONTINUOUS
10
131.383
20
30.1458
11
131.009
21
31.8299
0
LINE
8
BLACK
6
CONTINUOUS
10
128.385
20
29.4813
11
131.383
21
30.1458
0
LINE
8
BLACK
6
CONTINUOUS
10
128.717
20
27.9876
11
128.385
21
29.4813
0
LINE
8
BLACK
6
CONTINUOUS
10
131.938
20
28.7018
11
128.717
21
27.9876
0
LINE
8
BLACK
6
CONTINUOUS
10
134.968
20
15.0337
11
131.938
21
28.7018
0
LINE
8
BLACK
6
CONTINUOUS
10
131.747
20
14.3194
11
134.968
21
15.0337
0
LINE
8
BLACK
6
CONTINUOUS
10
132.078
20
12.8257
11
131.747
21
14.3194
0
LINE
8
BLACK
6
CONTINUOUS
10
135.075
20
13.4901
11
132.078
21
12.8257
0
LINE
8
BLACK
6
CONTINUOUS
10
135.448
20
11.806
11
135.075
21
13.4901
0
LINE
8
BLACK
6
CONTINUOUS
10
136.62
20
12.0658
11
135.448
21
11.806
0
LINE
8
BLACK
6
CONTINUOUS
10
137.334
20
8.84399
11
136.62
21
12.0658
0
LINE
8
BLACK
6
CONTINUOUS
10
136.163
20
8.58426
11
137.334
21
8.84399
0
LINE
8
BLACK
6
CONTINUOUS
10
136.536
20
6.90015
11
136.163
21
8.58426
0
LINE
8
BLACK
6
CONTINUOUS
10
130.415
20
5.54307
11
136.536
21
6.90015
0
LINE
8
BLACK
6
CONTINUOUS
10
130.588
20
4.76204
11
130.415
21
5.54307
0
LINE
8
BLACK
6
CONTINUOUS
10
127.854
20
4.15601
11
130.588
21
4.76204
0
LINE
8
BLACK
6
CONTINUOUS
10
127.681
20
4.93704
11
127.854
21
4.15601
0
LINE
8
BLACK
6
CONTINUOUS
10
124.528
20
4.23794
11
127.681
21
4.93704
0
LINE
8
BLACK
6
CONTINUOUS
10
123.067
20
10.8279
11
124.528
21
4.23794
  0
ENDSEC
  0
EOF
