  0
SECTION
  2
HEADER
  9
$ANGBASE
  50
0.0
  9
$ANGDIR
  70
1
  9
$MEASUREMENT
  70
1
  0
ENDSEC
  0
SECTION
  2
TABLES
  0
TABLE
  2
LTYPE
  70
4
  0
LTYPE
  5
40F
  2
CONTINUOUS
  70
0
  3
Solid line
  72
65
  73
0
  40
0.0
  0
LTYPE
  5
410
  2
DASHDOT
 70
0
  3
Dash Dot ____ _ ____ _
 72
65
 73
4
 40
2.0
 49
1.25
 49
-0.25
 49
0.25
 49
-0.25
  0
LTYPE
  5
411
  2
DASHED
 70
0
  3
Dashed __ __ __ __ __
 72
65
 73
2
 40
0.75
 49
0.5
 49
-0.25
  0
LTYPE
  5
43B
  2
DOTTED
 70
0
  3
Dotted .  .  .  .
 72
65
 73
2
 40
0.2
 49
0.0
 49
-0.2
  0
ENDTAB
  0
TABLE
  2
STYLE
  70
4
  0
STYLE
  2
KICAD
  70
0
  40
0
  41
1
  42
1
  50
0
  71
0
  3
isocp.shx
  0
STYLE
  2
KICADB
  70
0
  40
0
  41
1
  42
1
  50
0
  71
0
  3
isocp.shx
  0
STYLE
  2
KICADI
  70
0
  40
0
  41
1
  42
1
  50
15
  71
0
  3
isocp.shx
  0
STYLE
  2
KICADBI
  70
0
  40
0
  41
1
  42
1
  50
15
  71
0
  3
isocp.shx
  0
ENDTAB
  0
TABLE
  2
LAYER
  70
1
  0
LAYER
  2
BLACK
  70
0
  62
7
  6
CONTINUOUS
  0
ENDTAB
  0
ENDSEC
  0
SECTION
  2
ENTITIES
0
LINE
8
BLACK
6
CONTINUOUS
10
33.76
20
45.5707
11
38.6415
21
46.6529
0
LINE
8
BLACK
6
CONTINUOUS
10
34.8422
20
40.6893
11
33.76
21
45.5707
0
LINE
8
BLACK
6
CONTINUOUS
10
37.6559
20
27.9974
11
36.5737
21
32.8789
0
LINE
8
BLACK
6
CONTINUOUS
10
42.5374
20
29.0796
11
37.6559
21
27.9974
0
LINE
8
BLACK
6
CONTINUOUS
10
55.2292
20
31.8933
11
50.3477
21
30.8111
0
LINE
8
BLACK
6
CONTINUOUS
10
54.147
20
36.7748
11
55.2292
21
31.8933
0
LINE
8
BLACK
6
CONTINUOUS
10
51.3333
20
49.4667
11
52.4155
21
44.5852
0
LINE
8
BLACK
6
CONTINUOUS
10
46.4518
20
48.3845
11
51.3333
21
49.4667
0
LINE
8
BLACK
6
CONTINUOUS
10
-29.8524
20
-27.8285
11
-27.7393
21
-23.297
0
LINE
8
BLACK
6
CONTINUOUS
10
-24.3584
20
-16.0465
11
-22.2453
21
-11.515
0
LINE
8
BLACK
6
CONTINUOUS
10
-42.9091
20
-1.8793
11
-45.0222
21
-6.41084
0
LINE
8
BLACK
6
CONTINUOUS
10
-50.5162
20
-18.1928
11
-48.4031
21
-13.6613
0
LINE
8
BLACK
6
CONTINUOUS
10
-50.5162
20
-18.1928
11
-44.8971
21
-20.8131
0
LINE
8
BLACK
6
CONTINUOUS
10
-29.8524
20
-27.8285
11
-35.4715
21
-25.2083
0
LINE
8
BLACK
6
CONTINUOUS
10
-22.2453
20
-11.515
11
-27.8644
21
-8.89476
0
LINE
8
BLACK
6
CONTINUOUS
10
-42.9091
20
-1.8793
11
-37.29
21
-4.49953
0
LINE
8
BLACK
6
CONTINUOUS
10
-51.7031
20
-17.9297
11
-51.7031
21
-12.9297
0
LINE
8
BLACK
6
CONTINUOUS
10
-51.7031
20
-4.92969
11
-51.7031
21
0.070311
0
LINE
8
BLACK
6
CONTINUOUS
10
-74.5031
20
0.070311
11
-74.5031
21
-4.92969
0
LINE
8
BLACK
6
CONTINUOUS
10
-74.5031
20
-17.9297
11
-74.5031
21
-12.9297
0
LINE
8
BLACK
6
CONTINUOUS
10
-74.5031
20
-17.9297
11
-68.3031
21
-17.9297
0
LINE
8
BLACK
6
CONTINUOUS
10
-51.7031
20
-17.9297
11
-57.9031
21
-17.9297
0
LINE
8
BLACK
6
CONTINUOUS
10
-51.7031
20
0.070311
11
-57.9031
21
0.070311
0
LINE
8
BLACK
6
CONTINUOUS
10
-74.5031
20
0.070311
11
-68.3031
21
0.070311
0
LINE
8
BLACK
6
CONTINUOUS
10
-127.046
20
60.01
11
-125.964
21
64.8915
0
LINE
8
BLACK
6
CONTINUOUS
10
-122.165
20
58.9278
11
-127.046
21
60.01
0
LINE
8
BLACK
6
CONTINUOUS
10
-109.473
20
56.1141
11
-114.354
21
57.1963
0
LINE
8
BLACK
6
CONTINUOUS
10
-108.39
20
60.9956
11
-109.473
21
56.1141
0
LINE
8
BLACK
6
CONTINUOUS
10
-105.577
20
73.6875
11
-106.659
21
68.806
0
LINE
8
BLACK
6
CONTINUOUS
10
-110.458
20
74.7697
11
-105.577
21
73.6875
0
LINE
8
BLACK
6
CONTINUOUS
10
-123.15
20
77.5834
11
-124.232
21
72.7019
0
LINE
8
BLACK
6
CONTINUOUS
10
-118.269
20
76.5012
11
-123.15
21
77.5834
0
LINE
8
BLACK
6
CONTINUOUS
10
-131.169
20
41.4116
11
-130.087
21
46.2931
0
LINE
8
BLACK
6
CONTINUOUS
10
-126.288
20
40.3294
11
-131.169
21
41.4116
0
LINE
8
BLACK
6
CONTINUOUS
10
-113.596
20
37.5157
11
-118.477
21
38.5979
0
LINE
8
BLACK
6
CONTINUOUS
10
-112.514
20
42.3972
11
-113.596
21
37.5157
0
LINE
8
BLACK
6
CONTINUOUS
10
-109.7
20
55.089
11
-110.782
21
50.2075
0
LINE
8
BLACK
6
CONTINUOUS
10
-114.581
20
56.1712
11
-109.7
21
55.089
0
LINE
8
BLACK
6
CONTINUOUS
10
-127.273
20
58.9849
11
-128.355
21
54.1035
0
LINE
8
BLACK
6
CONTINUOUS
10
-122.392
20
57.9027
11
-127.273
21
58.9849
0
LINE
8
BLACK
6
CONTINUOUS
10
-135.292
20
22.8132
11
-134.21
21
27.6946
0
LINE
8
BLACK
6
CONTINUOUS
10
-130.411
20
21.731
11
-135.292
21
22.8132
0
LINE
8
BLACK
6
CONTINUOUS
10
-117.719
20
18.9173
11
-122.6
21
19.9995
0
LINE
8
BLACK
6
CONTINUOUS
10
-116.637
20
23.7987
11
-117.719
21
18.9173
0
LINE
8
BLACK
6
CONTINUOUS
10
-113.823
20
36.4906
11
-114.905
21
31.6091
0
LINE
8
BLACK
6
CONTINUOUS
10
-118.705
20
37.5728
11
-113.823
21
36.4906
0
LINE
8
BLACK
6
CONTINUOUS
10
-131.396
20
40.3865
11
-132.479
21
35.505
0
LINE
8
BLACK
6
CONTINUOUS
10
-126.515
20
39.3043
11
-131.396
21
40.3865
0
LINE
8
BLACK
6
CONTINUOUS
10
-139.416
20
4.21473
11
-138.333
21
9.09621
0
LINE
8
BLACK
6
CONTINUOUS
10
-134.534
20
3.13253
11
-139.416
21
4.21473
0
LINE
8
BLACK
6
CONTINUOUS
10
-121.842
20
0.318815
11
-126.724
21
1.40101
0
LINE
8
BLACK
6
CONTINUOUS
10
-120.76
20
5.20029
11
-121.842
21
0.318815
0
LINE
8
BLACK
6
CONTINUOUS
10
-117.946
20
17.8921
11
-119.028
21
13.0107
0
LINE
8
BLACK
6
CONTINUOUS
10
-122.828
20
18.9743
11
-117.946
21
17.8921
0
LINE
8
BLACK
6
CONTINUOUS
10
-135.52
20
21.7881
11
-136.602
21
16.9066
0
LINE
8
BLACK
6
CONTINUOUS
10
-130.638
20
20.7059
11
-135.52
21
21.7881
0
LINE
8
BLACK
6
CONTINUOUS
10
-107.932
20
58.2117
11
-106.85
21
63.0932
0
LINE
8
BLACK
6
CONTINUOUS
10
-103.051
20
57.1295
11
-107.932
21
58.2117
0
LINE
8
BLACK
6
CONTINUOUS
10
-90.3588
20
54.3158
11
-95.2403
21
55.398
0
LINE
8
BLACK
6
CONTINUOUS
10
-89.2766
20
59.1972
11
-90.3588
21
54.3158
0
LINE
8
BLACK
6
CONTINUOUS
10
-86.4629
20
71.8891
11
-87.5451
21
67.0076
0
LINE
8
BLACK
6
CONTINUOUS
10
-91.3444
20
72.9713
11
-86.4629
21
71.8891
0
LINE
8
BLACK
6
CONTINUOUS
10
-104.036
20
75.785
11
-105.118
21
70.9035
0
LINE
8
BLACK
6
CONTINUOUS
10
-99.1548
20
74.7028
11
-104.036
21
75.785
0
LINE
8
BLACK
6
CONTINUOUS
10
-112.055
20
39.6132
11
-110.973
21
44.4947
0
LINE
8
BLACK
6
CONTINUOUS
10
-107.174
20
38.531
11
-112.055
21
39.6132
0
LINE
8
BLACK
6
CONTINUOUS
10
-94.482
20
35.7173
11
-99.3635
21
36.7995
0
LINE
8
BLACK
6
CONTINUOUS
10
-93.3998
20
40.5988
11
-94.482
21
35.7173
0
LINE
8
BLACK
6
CONTINUOUS
10
-90.5861
20
53.2907
11
-91.6683
21
48.4092
0
LINE
8
BLACK
6
CONTINUOUS
10
-95.4676
20
54.3728
11
-90.5861
21
53.2907
0
LINE
8
BLACK
6
CONTINUOUS
10
-108.159
20
57.1866
11
-109.242
21
52.3051
0
LINE
8
BLACK
6
CONTINUOUS
10
-103.278
20
56.1044
11
-108.159
21
57.1866
0
LINE
8
BLACK
6
CONTINUOUS
10
-116.179
20
21.0148
11
-115.096
21
25.8963
0
LINE
8
BLACK
6
CONTINUOUS
10
-111.297
20
19.9326
11
-116.179
21
21.0148
0
LINE
8
BLACK
6
CONTINUOUS
10
-98.6052
20
17.1189
11
-103.487
21
18.2011
0
LINE
8
BLACK
6
CONTINUOUS
10
-97.523
20
22.0004
11
-98.6052
21
17.1189
0
LINE
8
BLACK
6
CONTINUOUS
10
-94.7093
20
34.6922
11
-95.7915
21
29.8107
0
LINE
8
BLACK
6
CONTINUOUS
10
-99.5907
20
35.7744
11
-94.7093
21
34.6922
0
LINE
8
BLACK
6
CONTINUOUS
10
-112.283
20
38.5881
11
-113.365
21
33.7066
0
LINE
8
BLACK
6
CONTINUOUS
10
-107.401
20
37.5059
11
-112.283
21
38.5881
0
LINE
8
BLACK
6
CONTINUOUS
10
-120.302
20
2.41636
11
-119.219
21
7.29784
0
LINE
8
BLACK
6
CONTINUOUS
10
-115.42
20
1.33416
11
-120.302
21
2.41636
0
LINE
8
BLACK
6
CONTINUOUS
10
-102.728
20
-1.47955
11
-107.61
21
-0.397357
0
LINE
8
BLACK
6
CONTINUOUS
10
-101.646
20
3.40192
11
-102.728
21
-1.47955
0
LINE
8
BLACK
6
CONTINUOUS
10
-98.8324
20
16.0938
11
-99.9146
21
11.2123
0
LINE
8
BLACK
6
CONTINUOUS
10
-103.714
20
17.176
11
-98.8324
21
16.0938
0
LINE
8
BLACK
6
CONTINUOUS
10
-116.406
20
19.9897
11
-117.488
21
15.1082
0
LINE
8
BLACK
6
CONTINUOUS
10
-111.524
20
18.9075
11
-116.406
21
19.9897
0
LINE
8
BLACK
6
CONTINUOUS
10
-87.7875
20
61.0629
11
-86.7053
21
65.9444
0
LINE
8
BLACK
6
CONTINUOUS
10
-82.9061
20
59.9807
11
-87.7875
21
61.0629
0
LINE
8
BLACK
6
CONTINUOUS
10
-70.2142
20
57.167
11
-75.0957
21
58.2492
0
LINE
8
BLACK
6
CONTINUOUS
10
-69.132
20
62.0485
11
-70.2142
21
57.167
0
LINE
8
BLACK
6
CONTINUOUS
10
-66.3183
20
74.7403
11
-67.4005
21
69.8589
0
LINE
8
BLACK
6
CONTINUOUS
10
-71.1998
20
75.8225
11
-66.3183
21
74.7403
0
LINE
8
BLACK
6
CONTINUOUS
10
-83.8916
20
78.6362
11
-84.9738
21
73.7548
0
LINE
8
BLACK
6
CONTINUOUS
10
-79.0101
20
77.554
11
-83.8916
21
78.6362
0
LINE
8
BLACK
6
CONTINUOUS
10
-91.9107
20
42.4645
11
-90.8285
21
47.346
0
LINE
8
BLACK
6
CONTINUOUS
10
-87.0292
20
41.3823
11
-91.9107
21
42.4645
0
LINE
8
BLACK
6
CONTINUOUS
10
-74.3374
20
38.5686
11
-79.2189
21
39.6508
0
LINE
8
BLACK
6
CONTINUOUS
10
-73.2552
20
43.45
11
-74.3374
21
38.5686
0
LINE
8
BLACK
6
CONTINUOUS
10
-70.4415
20
56.1419
11
-71.5237
21
51.2604
0
LINE
8
BLACK
6
CONTINUOUS
10
-75.3229
20
57.2241
11
-70.4415
21
56.1419
0
LINE
8
BLACK
6
CONTINUOUS
10
-88.0148
20
60.0378
11
-89.097
21
55.1563
0
LINE
8
BLACK
6
CONTINUOUS
10
-83.1333
20
58.9556
11
-88.0148
21
60.0378
0
LINE
8
BLACK
6
CONTINUOUS
10
-96.0339
20
23.866
11
-94.9517
21
28.7475
0
LINE
8
BLACK
6
CONTINUOUS
10
-91.1524
20
22.7838
11
-96.0339
21
23.866
0
LINE
8
BLACK
6
CONTINUOUS
10
-78.4605
20
19.9701
11
-83.342
21
21.0523
0
LINE
8
BLACK
6
CONTINUOUS
10
-77.3784
20
24.8516
11
-78.4605
21
19.9701
0
LINE
8
BLACK
6
CONTINUOUS
10
-74.5646
20
37.5435
11
-75.6468
21
32.662
0
LINE
8
BLACK
6
CONTINUOUS
10
-79.4461
20
38.6257
11
-74.5646
21
37.5435
0
LINE
8
BLACK
6
CONTINUOUS
10
-92.138
20
41.4394
11
-93.2202
21
36.5579
0
LINE
8
BLACK
6
CONTINUOUS
10
-87.2565
20
40.3572
11
-92.138
21
41.4394
0
LINE
8
BLACK
6
CONTINUOUS
10
-100.157
20
5.2676
11
-99.0749
21
10.1491
0
LINE
8
BLACK
6
CONTINUOUS
10
-95.2756
20
4.1854
11
-100.157
21
5.2676
0
LINE
8
BLACK
6
CONTINUOUS
10
-82.5837
20
1.37169
11
-87.4652
21
2.45388
0
LINE
8
BLACK
6
CONTINUOUS
10
-81.5015
20
6.25317
11
-82.5837
21
1.37169
0
LINE
8
BLACK
6
CONTINUOUS
10
-78.6878
20
18.945
11
-79.77
21
14.0635
0
LINE
8
BLACK
6
CONTINUOUS
10
-83.5693
20
20.0272
11
-78.6878
21
18.945
0
LINE
8
BLACK
6
CONTINUOUS
10
-96.2611
20
22.8409
11
-97.3433
21
17.9594
0
LINE
8
BLACK
6
CONTINUOUS
10
-91.3797
20
21.7587
11
-96.2611
21
22.8409
0
LINE
8
BLACK
6
CONTINUOUS
10
-67.6429
20
63.9142
11
-66.5607
21
68.7956
0
LINE
8
BLACK
6
CONTINUOUS
10
-62.7614
20
62.832
11
-67.6429
21
63.9142
0
LINE
8
BLACK
6
CONTINUOUS
10
-50.0696
20
60.0182
11
-54.9511
21
61.1004
0
LINE
8
BLACK
6
CONTINUOUS
10
-48.9874
20
64.8997
11
-50.0696
21
60.0182
0
LINE
8
BLACK
6
CONTINUOUS
10
-46.1737
20
77.5916
11
-47.2559
21
72.7101
0
LINE
8
BLACK
6
CONTINUOUS
10
-51.0551
20
78.6738
11
-46.1737
21
77.5916
0
LINE
8
BLACK
6
CONTINUOUS
10
-63.747
20
81.4875
11
-64.8292
21
76.606
0
LINE
8
BLACK
6
CONTINUOUS
10
-58.8655
20
80.4053
11
-63.747
21
81.4875
0
LINE
8
BLACK
6
CONTINUOUS
10
-71.7661
20
45.3157
11
-70.6839
21
50.1972
0
LINE
8
BLACK
6
CONTINUOUS
10
-66.8846
20
44.2335
11
-71.7661
21
45.3157
0
LINE
8
BLACK
6
CONTINUOUS
10
-54.1927
20
41.4198
11
-59.0742
21
42.502
0
LINE
8
BLACK
6
CONTINUOUS
10
-53.1105
20
46.3013
11
-54.1927
21
41.4198
0
LINE
8
BLACK
6
CONTINUOUS
10
-50.2968
20
58.9931
11
-51.379
21
54.1117
0
LINE
8
BLACK
6
CONTINUOUS
10
-55.1783
20
60.0753
11
-50.2968
21
58.9931
0
LINE
8
BLACK
6
CONTINUOUS
10
-67.8702
20
62.889
11
-68.9524
21
58.0076
0
LINE
8
BLACK
6
CONTINUOUS
10
-62.9887
20
61.8068
11
-67.8702
21
62.889
0
LINE
8
BLACK
6
CONTINUOUS
10
-75.8892
20
26.7173
11
-74.8071
21
31.5988
0
LINE
8
BLACK
6
CONTINUOUS
10
-71.0078
20
25.6351
11
-75.8892
21
26.7173
0
LINE
8
BLACK
6
CONTINUOUS
10
-58.3159
20
22.8214
11
-63.1974
21
23.9036
0
LINE
8
BLACK
6
CONTINUOUS
10
-57.2337
20
27.7028
11
-58.3159
21
22.8214
0
LINE
8
BLACK
6
CONTINUOUS
10
-54.42
20
40.3947
11
-55.5022
21
35.5132
0
LINE
8
BLACK
6
CONTINUOUS
10
-59.3015
20
41.4769
11
-54.42
21
40.3947
0
LINE
8
BLACK
6
CONTINUOUS
10
-71.9933
20
44.2906
11
-73.0755
21
39.4091
0
LINE
8
BLACK
6
CONTINUOUS
10
-67.1119
20
43.2084
11
-71.9933
21
44.2906
0
LINE
8
BLACK
6
CONTINUOUS
10
-51.106
20
50.4918
11
-50.0239
21
55.3732
0
LINE
8
BLACK
6
CONTINUOUS
10
-46.2246
20
49.4096
11
-51.106
21
50.4918
0
LINE
8
BLACK
6
CONTINUOUS
10
-33.5327
20
46.5958
11
-38.4142
21
47.678
0
LINE
8
BLACK
6
CONTINUOUS
10
-32.4505
20
51.4773
11
-33.5327
21
46.5958
0
LINE
8
BLACK
6
CONTINUOUS
10
-29.6368
20
64.1692
11
-30.719
21
59.2877
0
LINE
8
BLACK
6
CONTINUOUS
10
-34.5183
20
65.2514
11
-29.6368
21
64.1692
0
LINE
8
BLACK
6
CONTINUOUS
10
-47.2101
20
68.0651
11
-48.2923
21
63.1836
0
LINE
8
BLACK
6
CONTINUOUS
10
-42.3287
20
66.9829
11
-47.2101
21
68.0651
0
LINE
8
BLACK
6
CONTINUOUS
10
-55.2292
20
31.8933
11
-54.147
21
36.7748
0
LINE
8
BLACK
6
CONTINUOUS
10
-50.3477
20
30.8111
11
-55.2292
21
31.8933
0
LINE
8
BLACK
6
CONTINUOUS
10
-37.6559
20
27.9974
11
-42.5374
21
29.0796
0
LINE
8
BLACK
6
CONTINUOUS
10
-36.5737
20
32.8789
11
-37.6559
21
27.9974
0
LINE
8
BLACK
6
CONTINUOUS
10
-33.76
20
45.5707
11
-34.8422
21
40.6893
0
LINE
8
BLACK
6
CONTINUOUS
10
-38.6415
20
46.6529
11
-33.76
21
45.5707
0
LINE
8
BLACK
6
CONTINUOUS
10
-51.3333
20
49.4667
11
-52.4155
21
44.5852
0
LINE
8
BLACK
6
CONTINUOUS
10
-46.4518
20
48.3845
11
-51.3333
21
49.4667
0
LINE
8
BLACK
6
CONTINUOUS
10
-59.3524
20
13.2949
11
-58.2702
21
18.1764
0
LINE
8
BLACK
6
CONTINUOUS
10
-54.4709
20
12.2127
11
-59.3524
21
13.2949
0
LINE
8
BLACK
6
CONTINUOUS
10
-41.7791
20
9.39897
11
-46.6605
21
10.4812
0
LINE
8
BLACK
6
CONTINUOUS
10
-40.6969
20
14.2805
11
-41.7791
21
9.39897
0
LINE
8
BLACK
6
CONTINUOUS
10
-37.8832
20
26.9723
11
-38.9654
21
22.0908
0
LINE
8
BLACK
6
CONTINUOUS
10
-42.7646
20
28.0545
11
-37.8832
21
26.9723
0
LINE
8
BLACK
6
CONTINUOUS
10
-55.4565
20
30.8682
11
-56.5387
21
25.9867
0
LINE
8
BLACK
6
CONTINUOUS
10
-50.575
20
29.786
11
-55.4565
21
30.8682
0
LINE
8
BLACK
6
CONTINUOUS
10
-33.5384
20
41.719
11
-32.4562
21
46.6005
0
LINE
8
BLACK
6
CONTINUOUS
10
-28.6569
20
40.6368
11
-33.5384
21
41.719
0
LINE
8
BLACK
6
CONTINUOUS
10
-15.9651
20
37.8231
11
-20.8466
21
38.9053
0
LINE
8
BLACK
6
CONTINUOUS
10
-14.8829
20
42.7045
11
-15.9651
21
37.8231
0
LINE
8
BLACK
6
CONTINUOUS
10
-12.0692
20
55.3964
11
-13.1514
21
50.5149
0
LINE
8
BLACK
6
CONTINUOUS
10
-16.9506
20
56.4786
11
-12.0692
21
55.3964
0
LINE
8
BLACK
6
CONTINUOUS
10
-29.6425
20
59.2923
11
-30.7247
21
54.4108
0
LINE
8
BLACK
6
CONTINUOUS
10
-24.761
20
58.2101
11
-29.6425
21
59.2923
0
LINE
8
BLACK
6
CONTINUOUS
10
-37.6616
20
23.1205
11
-36.5794
21
28.002
0
LINE
8
BLACK
6
CONTINUOUS
10
-32.7801
20
22.0383
11
-37.6616
21
23.1205
0
LINE
8
BLACK
6
CONTINUOUS
10
-20.0882
20
19.2246
11
-24.9697
21
20.3068
0
LINE
8
BLACK
6
CONTINUOUS
10
-19.0061
20
24.1061
11
-20.0882
21
19.2246
0
LINE
8
BLACK
6
CONTINUOUS
10
-16.1923
20
36.798
11
-17.2745
21
31.9165
0
LINE
8
BLACK
6
CONTINUOUS
10
-21.0738
20
37.8802
11
-16.1923
21
36.798
0
LINE
8
BLACK
6
CONTINUOUS
10
-33.7657
20
40.6939
11
-34.8479
21
35.8124
0
LINE
8
BLACK
6
CONTINUOUS
10
-28.8842
20
39.6117
11
-33.7657
21
40.6939
0
LINE
8
BLACK
6
CONTINUOUS
10
-41.7848
20
4.5221
11
-40.7026
21
9.40358
0
LINE
8
BLACK
6
CONTINUOUS
10
-36.9033
20
3.4399
11
-41.7848
21
4.5221
0
LINE
8
BLACK
6
CONTINUOUS
10
-24.2114
20
0.626186
11
-29.0929
21
1.70838
0
LINE
8
BLACK
6
CONTINUOUS
10
-23.1292
20
5.50767
11
-24.2114
21
0.626186
0
LINE
8
BLACK
6
CONTINUOUS
10
-20.3155
20
18.1995
11
-21.3977
21
13.318
0
LINE
8
BLACK
6
CONTINUOUS
10
-25.197
20
19.2817
11
-20.3155
21
18.1995
0
LINE
8
BLACK
6
CONTINUOUS
10
-37.8888
20
22.0954
11
-38.971
21
17.2139
0
LINE
8
BLACK
6
CONTINUOUS
10
-33.0074
20
21.0132
11
-37.8888
21
22.0954
0
LINE
8
BLACK
6
CONTINUOUS
10
-28.8802
20
-28.415
11
-25.8711
21
-24.4218
0
LINE
8
BLACK
6
CONTINUOUS
10
-24.887
20
-31.4241
11
-28.8802
21
-28.415
0
LINE
8
BLACK
6
CONTINUOUS
10
-14.5048
20
-39.2476
11
-18.4979
21
-36.2386
0
LINE
8
BLACK
6
CONTINUOUS
10
-11.4957
20
-35.2545
11
-14.5048
21
-39.2476
0
LINE
8
BLACK
6
CONTINUOUS
10
-3.67209
20
-24.8722
11
-6.68116
21
-28.8654
0
LINE
8
BLACK
6
CONTINUOUS
10
-7.66527
20
-21.8631
11
-3.67209
21
-24.8722
0
LINE
8
BLACK
6
CONTINUOUS
10
-18.0475
20
-14.0395
11
-21.0566
21
-18.0327
0
LINE
8
BLACK
6
CONTINUOUS
10
-14.0543
20
-17.0486
11
-18.0475
21
-14.0395
0
LINE
8
BLACK
6
CONTINUOUS
10
12.0692
20
55.3964
11
16.9506
21
56.4786
0
LINE
8
BLACK
6
CONTINUOUS
10
13.1514
20
50.5149
11
12.0692
21
55.3964
0
LINE
8
BLACK
6
CONTINUOUS
10
15.9651
20
37.8231
11
14.8829
21
42.7045
0
LINE
8
BLACK
6
CONTINUOUS
10
20.8466
20
38.9053
11
15.9651
21
37.8231
0
LINE
8
BLACK
6
CONTINUOUS
10
33.5384
20
41.719
11
28.6569
21
40.6368
0
LINE
8
BLACK
6
CONTINUOUS
10
32.4562
20
46.6005
11
33.5384
21
41.719
0
LINE
8
BLACK
6
CONTINUOUS
10
29.6425
20
59.2923
11
30.7247
21
54.4108
0
LINE
8
BLACK
6
CONTINUOUS
10
24.761
20
58.2101
11
29.6425
21
59.2923
0
LINE
8
BLACK
6
CONTINUOUS
10
16.1923
20
36.798
11
21.0738
21
37.8802
0
LINE
8
BLACK
6
CONTINUOUS
10
17.2745
20
31.9165
11
16.1923
21
36.798
0
LINE
8
BLACK
6
CONTINUOUS
10
20.0882
20
19.2246
11
19.0061
21
24.1061
0
LINE
8
BLACK
6
CONTINUOUS
10
24.9697
20
20.3068
11
20.0882
21
19.2246
0
LINE
8
BLACK
6
CONTINUOUS
10
37.6616
20
23.1205
11
32.7801
21
22.0383
0
LINE
8
BLACK
6
CONTINUOUS
10
36.5794
20
28.002
11
37.6616
21
23.1205
0
LINE
8
BLACK
6
CONTINUOUS
10
33.7657
20
40.6939
11
34.8479
21
35.8124
0
LINE
8
BLACK
6
CONTINUOUS
10
28.8842
20
39.6117
11
33.7657
21
40.6939
0
LINE
8
BLACK
6
CONTINUOUS
10
20.3155
20
18.1995
11
25.197
21
19.2817
0
LINE
8
BLACK
6
CONTINUOUS
10
21.3977
20
13.318
11
20.3155
21
18.1995
0
LINE
8
BLACK
6
CONTINUOUS
10
24.2114
20
0.626186
11
23.1292
21
5.50767
0
LINE
8
BLACK
6
CONTINUOUS
10
29.0929
20
1.70838
11
24.2114
21
0.626186
0
LINE
8
BLACK
6
CONTINUOUS
10
41.7848
20
4.5221
11
36.9033
21
3.4399
0
LINE
8
BLACK
6
CONTINUOUS
10
40.7026
20
9.40358
11
41.7848
21
4.5221
0
LINE
8
BLACK
6
CONTINUOUS
10
37.8888
20
22.0954
11
38.971
21
17.2139
0
LINE
8
BLACK
6
CONTINUOUS
10
33.0074
20
21.0132
11
37.8888
21
22.0954
0
LINE
8
BLACK
6
CONTINUOUS
10
3.67209
20
-24.8722
11
7.66527
21
-21.8631
0
LINE
8
BLACK
6
CONTINUOUS
10
6.68116
20
-28.8654
11
3.67209
21
-24.8722
0
LINE
8
BLACK
6
CONTINUOUS
10
14.5048
20
-39.2476
11
11.4957
21
-35.2545
0
LINE
8
BLACK
6
CONTINUOUS
10
18.4979
20
-36.2386
11
14.5048
21
-39.2476
0
LINE
8
BLACK
6
CONTINUOUS
10
28.8802
20
-28.415
11
24.887
21
-31.4241
0
LINE
8
BLACK
6
CONTINUOUS
10
25.8711
20
-24.4218
11
28.8802
21
-28.415
0
LINE
8
BLACK
6
CONTINUOUS
10
18.0475
20
-14.0395
11
21.0566
21
-18.0327
0
LINE
8
BLACK
6
CONTINUOUS
10
14.0543
20
-17.0486
11
18.0475
21
-14.0395
0
LINE
8
BLACK
6
CONTINUOUS
10
29.6368
20
64.1692
11
34.5183
21
65.2514
0
LINE
8
BLACK
6
CONTINUOUS
10
30.719
20
59.2877
11
29.6368
21
64.1692
0
LINE
8
BLACK
6
CONTINUOUS
10
33.5327
20
46.5958
11
32.4505
21
51.4773
0
LINE
8
BLACK
6
CONTINUOUS
10
38.4142
20
47.678
11
33.5327
21
46.5958
0
LINE
8
BLACK
6
CONTINUOUS
10
51.106
20
50.4918
11
46.2246
21
49.4096
0
LINE
8
BLACK
6
CONTINUOUS
10
50.0239
20
55.3732
11
51.106
21
50.4918
0
LINE
8
BLACK
6
CONTINUOUS
10
47.2101
20
68.0651
11
48.2923
21
63.1836
0
LINE
8
BLACK
6
CONTINUOUS
10
42.3287
20
66.9829
11
47.2101
21
68.0651
0
LINE
8
BLACK
6
CONTINUOUS
10
37.8832
20
26.9723
11
42.7646
21
28.0545
0
LINE
8
BLACK
6
CONTINUOUS
10
38.9654
20
22.0908
11
37.8832
21
26.9723
0
LINE
8
BLACK
6
CONTINUOUS
10
41.7791
20
9.39897
11
40.6969
21
14.2805
0
LINE
8
BLACK
6
CONTINUOUS
10
46.6605
20
10.4812
11
41.7791
21
9.39897
0
LINE
8
BLACK
6
CONTINUOUS
10
59.3524
20
13.2949
11
54.4709
21
12.2127
0
LINE
8
BLACK
6
CONTINUOUS
10
58.2702
20
18.1764
11
59.3524
21
13.2949
0
LINE
8
BLACK
6
CONTINUOUS
10
55.4565
20
30.8682
11
56.5387
21
25.9867
0
LINE
8
BLACK
6
CONTINUOUS
10
50.575
20
29.786
11
55.4565
21
30.8682
0
LINE
8
BLACK
6
CONTINUOUS
10
29.8524
20
-27.8285
11
27.7393
21
-23.297
0
LINE
8
BLACK
6
CONTINUOUS
10
50.5162
20
-18.1928
11
48.4031
21
-13.6613
0
LINE
8
BLACK
6
CONTINUOUS
10
42.9091
20
-1.8793
11
44.8109
21
-5.95768
0
LINE
8
BLACK
6
CONTINUOUS
10
42.9091
20
-1.8793
11
37.7431
21
-4.28822
0
LINE
8
BLACK
6
CONTINUOUS
10
50.5162
20
-18.1928
11
44.8971
21
-20.8131
0
LINE
8
BLACK
6
CONTINUOUS
10
29.8524
20
-27.8285
11
35.4715
21
-25.2083
0
LINE
8
BLACK
6
CONTINUOUS
10
22.2453
20
-11.515
11
27.8644
21
-8.89476
0
LINE
8
BLACK
6
CONTINUOUS
10
22.2453
20
-11.515
11
24.3584
21
-16.0465
0
LINE
8
BLACK
6
CONTINUOUS
10
46.1737
20
77.5916
11
51.0551
21
78.6738
0
LINE
8
BLACK
6
CONTINUOUS
10
47.2559
20
72.7101
11
46.1737
21
77.5916
0
LINE
8
BLACK
6
CONTINUOUS
10
50.0696
20
60.0182
11
48.9874
21
64.8997
0
LINE
8
BLACK
6
CONTINUOUS
10
54.9511
20
61.1004
11
50.0696
21
60.0182
0
LINE
8
BLACK
6
CONTINUOUS
10
67.6429
20
63.9142
11
62.7614
21
62.832
0
LINE
8
BLACK
6
CONTINUOUS
10
66.5607
20
68.7956
11
67.6429
21
63.9142
0
LINE
8
BLACK
6
CONTINUOUS
10
63.747
20
81.4875
11
64.8292
21
76.606
0
LINE
8
BLACK
6
CONTINUOUS
10
58.8655
20
80.4053
11
63.747
21
81.4875
0
LINE
8
BLACK
6
CONTINUOUS
10
50.2968
20
58.9932
11
55.1783
21
60.0754
0
LINE
8
BLACK
6
CONTINUOUS
10
51.379
20
54.1117
11
50.2968
21
58.9932
0
LINE
8
BLACK
6
CONTINUOUS
10
54.1927
20
41.4198
11
53.1105
21
46.3013
0
LINE
8
BLACK
6
CONTINUOUS
10
59.0742
20
42.502
11
54.1927
21
41.4198
0
LINE
8
BLACK
6
CONTINUOUS
10
71.7661
20
45.3157
11
66.8846
21
44.2335
0
LINE
8
BLACK
6
CONTINUOUS
10
70.6839
20
50.1972
11
71.7661
21
45.3157
0
LINE
8
BLACK
6
CONTINUOUS
10
67.8702
20
62.8891
11
68.9524
21
58.0076
0
LINE
8
BLACK
6
CONTINUOUS
10
62.9887
20
61.8069
11
67.8702
21
62.8891
0
LINE
8
BLACK
6
CONTINUOUS
10
54.42
20
40.3947
11
59.3015
21
41.4769
0
LINE
8
BLACK
6
CONTINUOUS
10
55.5022
20
35.5132
11
54.42
21
40.3947
0
LINE
8
BLACK
6
CONTINUOUS
10
58.3159
20
22.8214
11
57.2337
21
27.7029
0
LINE
8
BLACK
6
CONTINUOUS
10
63.1974
20
23.9036
11
58.3159
21
22.8214
0
LINE
8
BLACK
6
CONTINUOUS
10
75.8892
20
26.7173
11
71.0078
21
25.6351
0
LINE
8
BLACK
6
CONTINUOUS
10
74.807
20
31.5988
11
75.8892
21
26.7173
0
LINE
8
BLACK
6
CONTINUOUS
10
71.9933
20
44.2906
11
73.0755
21
39.4091
0
LINE
8
BLACK
6
CONTINUOUS
10
67.1119
20
43.2084
11
71.9933
21
44.2906
0
LINE
8
BLACK
6
CONTINUOUS
10
51.7032
20
-17.9297
11
51.7032
21
-12.9297
0
LINE
8
BLACK
6
CONTINUOUS
10
74.5032
20
-17.9297
11
74.5032
21
-12.9297
0
LINE
8
BLACK
6
CONTINUOUS
10
74.5032
20
0.070305
11
74.5032
21
-4.42969
0
LINE
8
BLACK
6
CONTINUOUS
10
74.5032
20
0.070305
11
68.8032
21
0.070305
0
LINE
8
BLACK
6
CONTINUOUS
10
74.5032
20
-17.9297
11
68.3032
21
-17.9297
0
LINE
8
BLACK
6
CONTINUOUS
10
51.7032
20
-17.9297
11
57.9032
21
-17.9297
0
LINE
8
BLACK
6
CONTINUOUS
10
51.7032
20
0.070305
11
57.9032
21
0.070305
0
LINE
8
BLACK
6
CONTINUOUS
10
51.7032
20
0.070305
11
51.7032
21
-4.92969
0
LINE
8
BLACK
6
CONTINUOUS
10
66.3183
20
74.7403
11
71.1998
21
75.8225
0
LINE
8
BLACK
6
CONTINUOUS
10
67.4005
20
69.8589
11
66.3183
21
74.7403
0
LINE
8
BLACK
6
CONTINUOUS
10
70.2142
20
57.167
11
69.132
21
62.0485
0
LINE
8
BLACK
6
CONTINUOUS
10
75.0957
20
58.2492
11
70.2142
21
57.167
0
LINE
8
BLACK
6
CONTINUOUS
10
87.7875
20
61.0629
11
82.906
21
59.9807
0
LINE
8
BLACK
6
CONTINUOUS
10
86.7053
20
65.9444
11
87.7875
21
61.0629
0
LINE
8
BLACK
6
CONTINUOUS
10
83.8916
20
78.6362
11
84.9738
21
73.7548
0
LINE
8
BLACK
6
CONTINUOUS
10
79.0101
20
77.554
11
83.8916
21
78.6362
0
LINE
8
BLACK
6
CONTINUOUS
10
70.4415
20
56.1419
11
75.3229
21
57.2241
0
LINE
8
BLACK
6
CONTINUOUS
10
71.5237
20
51.2604
11
70.4415
21
56.1419
0
LINE
8
BLACK
6
CONTINUOUS
10
74.3374
20
38.5686
11
73.2552
21
43.45
0
LINE
8
BLACK
6
CONTINUOUS
10
79.2189
20
39.6508
11
74.3374
21
38.5686
0
LINE
8
BLACK
6
CONTINUOUS
10
91.9107
20
42.4645
11
87.0292
21
41.3823
0
LINE
8
BLACK
6
CONTINUOUS
10
90.8285
20
47.346
11
91.9107
21
42.4645
0
LINE
8
BLACK
6
CONTINUOUS
10
88.0148
20
60.0378
11
89.097
21
55.1563
0
LINE
8
BLACK
6
CONTINUOUS
10
83.1333
20
58.9556
11
88.0148
21
60.0378
0
LINE
8
BLACK
6
CONTINUOUS
10
74.5646
20
37.5435
11
79.4461
21
38.6257
0
LINE
8
BLACK
6
CONTINUOUS
10
75.6468
20
32.662
11
74.5646
21
37.5435
0
LINE
8
BLACK
6
CONTINUOUS
10
78.4605
20
19.9701
11
77.3784
21
24.8516
0
LINE
8
BLACK
6
CONTINUOUS
10
83.342
20
21.0523
11
78.4605
21
19.9701
0
LINE
8
BLACK
6
CONTINUOUS
10
96.0339
20
23.866
11
91.1524
21
22.7838
0
LINE
8
BLACK
6
CONTINUOUS
10
94.9517
20
28.7475
11
96.0339
21
23.866
0
LINE
8
BLACK
6
CONTINUOUS
10
92.138
20
41.4394
11
93.2202
21
36.5579
0
LINE
8
BLACK
6
CONTINUOUS
10
87.2565
20
40.3572
11
92.138
21
41.4394
0
LINE
8
BLACK
6
CONTINUOUS
10
78.6878
20
18.945
11
83.5693
21
20.0272
0
LINE
8
BLACK
6
CONTINUOUS
10
79.77
20
14.0635
11
78.6878
21
18.945
0
LINE
8
BLACK
6
CONTINUOUS
10
82.5837
20
1.37169
11
81.5015
21
6.25317
0
LINE
8
BLACK
6
CONTINUOUS
10
87.4652
20
2.45388
11
82.5837
21
1.37169
0
LINE
8
BLACK
6
CONTINUOUS
10
100.157
20
5.2676
11
95.2756
21
4.1854
0
LINE
8
BLACK
6
CONTINUOUS
10
99.0749
20
10.1491
11
100.157
21
5.2676
0
LINE
8
BLACK
6
CONTINUOUS
10
96.2611
20
22.8409
11
97.3433
21
17.9594
0
LINE
8
BLACK
6
CONTINUOUS
10
91.3797
20
21.7587
11
96.2611
21
22.8409
0
LINE
8
BLACK
6
CONTINUOUS
10
86.4629
20
71.8891
11
91.3444
21
72.9713
0
LINE
8
BLACK
6
CONTINUOUS
10
87.5451
20
67.0076
11
86.4629
21
71.8891
0
LINE
8
BLACK
6
CONTINUOUS
10
90.3588
20
54.3158
11
89.2766
21
59.1972
0
LINE
8
BLACK
6
CONTINUOUS
10
95.2403
20
55.398
11
90.3588
21
54.3158
0
LINE
8
BLACK
6
CONTINUOUS
10
107.932
20
58.2117
11
103.051
21
57.1295
0
LINE
8
BLACK
6
CONTINUOUS
10
106.85
20
63.0932
11
107.932
21
58.2117
0
LINE
8
BLACK
6
CONTINUOUS
10
104.036
20
75.785
11
105.118
21
70.9035
0
LINE
8
BLACK
6
CONTINUOUS
10
99.1548
20
74.7028
11
104.036
21
75.785
0
LINE
8
BLACK
6
CONTINUOUS
10
90.5861
20
53.2907
11
95.4676
21
54.3728
0
LINE
8
BLACK
6
CONTINUOUS
10
91.6683
20
48.4092
11
90.5861
21
53.2907
0
LINE
8
BLACK
6
CONTINUOUS
10
94.482
20
35.7173
11
93.3998
21
40.5988
0
LINE
8
BLACK
6
CONTINUOUS
10
99.3635
20
36.7995
11
94.482
21
35.7173
0
LINE
8
BLACK
6
CONTINUOUS
10
112.055
20
39.6132
11
107.174
21
38.531
0
LINE
8
BLACK
6
CONTINUOUS
10
110.973
20
44.4947
11
112.055
21
39.6132
0
LINE
8
BLACK
6
CONTINUOUS
10
108.159
20
57.1866
11
109.242
21
52.3051
0
LINE
8
BLACK
6
CONTINUOUS
10
103.278
20
56.1044
11
108.159
21
57.1866
0
LINE
8
BLACK
6
CONTINUOUS
10
94.7093
20
34.6922
11
99.5907
21
35.7744
0
LINE
8
BLACK
6
CONTINUOUS
10
95.7915
20
29.8107
11
94.7093
21
34.6922
0
LINE
8
BLACK
6
CONTINUOUS
10
98.6052
20
17.1189
11
97.523
21
22.0004
0
LINE
8
BLACK
6
CONTINUOUS
10
103.487
20
18.2011
11
98.6052
21
17.1189
0
LINE
8
BLACK
6
CONTINUOUS
10
116.179
20
21.0148
11
111.297
21
19.9326
0
LINE
8
BLACK
6
CONTINUOUS
10
115.096
20
25.8963
11
116.179
21
21.0148
0
LINE
8
BLACK
6
CONTINUOUS
10
112.283
20
38.5881
11
113.365
21
33.7066
0
LINE
8
BLACK
6
CONTINUOUS
10
107.401
20
37.5059
11
112.283
21
38.5881
0
LINE
8
BLACK
6
CONTINUOUS
10
98.8324
20
16.0938
11
103.714
21
17.176
0
LINE
8
BLACK
6
CONTINUOUS
10
99.9146
20
11.2123
11
98.8324
21
16.0938
0
LINE
8
BLACK
6
CONTINUOUS
10
102.728
20
-1.47955
11
101.646
21
3.40192
0
LINE
8
BLACK
6
CONTINUOUS
10
107.61
20
-0.397357
11
102.728
21
-1.47955
0
LINE
8
BLACK
6
CONTINUOUS
10
120.302
20
2.41636
11
115.42
21
1.33416
0
LINE
8
BLACK
6
CONTINUOUS
10
119.219
20
7.29784
11
120.302
21
2.41636
0
LINE
8
BLACK
6
CONTINUOUS
10
116.406
20
19.9897
11
117.488
21
15.1082
0
LINE
8
BLACK
6
CONTINUOUS
10
111.524
20
18.9075
11
116.406
21
19.9897
0
LINE
8
BLACK
6
CONTINUOUS
10
105.577
20
73.6875
11
110.458
21
74.7697
0
LINE
8
BLACK
6
CONTINUOUS
10
106.659
20
68.806
11
105.577
21
73.6875
0
LINE
8
BLACK
6
CONTINUOUS
10
109.473
20
56.1141
11
108.39
21
60.9956
0
LINE
8
BLACK
6
CONTINUOUS
10
114.354
20
57.1963
11
109.473
21
56.1141
0
LINE
8
BLACK
6
CONTINUOUS
10
127.046
20
60.01
11
122.165
21
58.9278
0
LINE
8
BLACK
6
CONTINUOUS
10
125.964
20
64.8915
11
127.046
21
60.01
0
LINE
8
BLACK
6
CONTINUOUS
10
123.15
20
77.5834
11
124.232
21
72.7019
0
LINE
8
BLACK
6
CONTINUOUS
10
118.269
20
76.5012
11
123.15
21
77.5834
0
LINE
8
BLACK
6
CONTINUOUS
10
109.7
20
55.089
11
114.581
21
56.1712
0
LINE
8
BLACK
6
CONTINUOUS
10
110.782
20
50.2075
11
109.7
21
55.089
0
LINE
8
BLACK
6
CONTINUOUS
10
113.596
20
37.5157
11
112.514
21
42.3972
0
LINE
8
BLACK
6
CONTINUOUS
10
118.477
20
38.5979
11
113.596
21
37.5157
0
LINE
8
BLACK
6
CONTINUOUS
10
131.169
20
41.4116
11
126.288
21
40.3294
0
LINE
8
BLACK
6
CONTINUOUS
10
130.087
20
46.2931
11
131.169
21
41.4116
0
LINE
8
BLACK
6
CONTINUOUS
10
127.273
20
58.9849
11
128.355
21
54.1035
0
LINE
8
BLACK
6
CONTINUOUS
10
122.392
20
57.9027
11
127.273
21
58.9849
0
LINE
8
BLACK
6
CONTINUOUS
10
113.829
20
36.4662
11
115.993
21
26.7032
0
LINE
8
BLACK
6
CONTINUOUS
10
131.402
20
40.3621
11
133.566
21
30.5991
0
LINE
8
BLACK
6
CONTINUOUS
10
139.41
20
4.23914
11
137.246
21
14.0021
0
LINE
8
BLACK
6
CONTINUOUS
10
121.837
20
0.343223
11
119.672
21
10.1062
0
LINE
8
BLACK
6
CONTINUOUS
10
121.837
20
0.343223
11
126.718
21
1.42542
0
LINE
8
BLACK
6
CONTINUOUS
10
139.41
20
4.23914
11
134.529
21
3.15694
0
LINE
8
BLACK
6
CONTINUOUS
10
131.402
20
40.3621
11
126.52
21
39.2799
0
LINE
8
BLACK
6
CONTINUOUS
10
113.829
20
36.4662
11
118.71
21
37.5484
  0
ENDSEC
  0
EOF
